# Made in Blockbench 3.5.2
mtllib materials.mtl
o cube
v 0.23880093495742183 0.044918309537789206 0.4584814700772597
v 0.15019483495131836 0.0403571960219407 0.5465334733776045
v 0.06247974282168512 0.05774212692165218 0.2817149944334374
v -0.02612635718441836 0.053181013405803675 0.3697669977337823
v 0.1424449745657428 -0.7081553370295691 0.49996172734187483
v 0.2310510745718463 -0.7035942235137206 0.41190972404153003
v -0.0338762175699939 -0.6953315196457062 0.32319525169805263
v 0.05472988243610958 -0.6907704061298576 0.23514324839770775
vt 0.000244140625 0.968505859375
vt 0.000244140625 0.906494140625
vt 0.031005859375 0.968505859375
vt 0.000244140625 0.906494140625
vt 0.031005859375 0.906494140625
vt 0.031005859375 0.968505859375
vt 0.218994140625 0.968505859375
vt 0.218994140625 0.906494140625
vt 0.249755859375 0.968505859375
vt 0.218994140625 0.906494140625
vt 0.249755859375 0.906494140625
vt 0.249755859375 0.968505859375
vt 0.218505859375 0.968994140625
vt 0.218505859375 0.999755859375
vt 0.031494140625 0.968994140625
vt 0.218505859375 0.999755859375
vt 0.031494140625 0.999755859375
vt 0.031494140625 0.968994140625
vt 0.406005859375 0.999755859375
vt 0.406005859375 0.968994140625
vt 0.218994140625 0.999755859375
vt 0.406005859375 0.968994140625
vt 0.218994140625 0.968994140625
vt 0.218994140625 0.999755859375
vt 0.250244140625 0.968505859375
vt 0.250244140625 0.906494140625
vt 0.437255859375 0.968505859375
vt 0.250244140625 0.906494140625
vt 0.437255859375 0.906494140625
vt 0.437255859375 0.968505859375
vt 0.031494140625 0.968505859375
vt 0.031494140625 0.906494140625
vt 0.218505859375 0.968505859375
vt 0.031494140625 0.906494140625
vt 0.218505859375 0.906494140625
vt 0.218505859375 0.968505859375
vn 0.010333147180767319 0.9980167107353464 0.062095661380972826
vn 0.010333147180767319 0.9980167107353464 0.062095661380972826
vn 0.010333147180767319 0.9980167107353464 0.062095661380972826
vn 0.010333147180767319 0.9980167107353464 0.062095661380972826
vn 0.010333147180767319 0.9980167107353464 0.062095661380972826
vn 0.010333147180767319 0.9980167107353464 0.062095661380972826
vn -0.010333147180767319 -0.9980167107353464 -0.062095661380972826
vn -0.010333147180767319 -0.9980167107353464 -0.062095661380972826
vn -0.010333147180767319 -0.9980167107353464 -0.062095661380972826
vn -0.010333147180767319 -0.9980167107353464 -0.062095661380972826
vn -0.010333147180767319 -0.9980167107353464 -0.062095661380972826
vn -0.010333147180767319 -0.9980167107353464 -0.062095661380972826
vn 0.7052847685429463 -0.05129526953545197 0.7070659025752885
vn 0.7052847685429463 -0.05129526953545197 0.7070659025752885
vn 0.7052847685429463 -0.05129526953545197 0.7070659025752885
vn 0.7052847685429463 -0.05129526953545197 0.7070659025752885
vn 0.7052847685429463 -0.05129526953545197 0.7070659025752885
vn 0.7052847685429463 -0.05129526953545197 0.7070659025752885
vn -0.7052847685429463 0.05129526953545197 -0.7070659025752885
vn -0.7052847685429463 0.05129526953545197 -0.7070659025752885
vn -0.7052847685429463 0.05129526953545197 -0.7070659025752885
vn -0.7052847685429463 0.05129526953545197 -0.7070659025752885
vn -0.7052847685429463 0.05129526953545197 -0.7070659025752885
vn -0.7052847685429463 0.05129526953545197 -0.7070659025752885
vn 0.7088488000488276 0.03648890812678804 -0.7044160264027586
vn 0.7088488000488276 0.03648890812678804 -0.7044160264027586
vn 0.7088488000488276 0.03648890812678804 -0.7044160264027586
vn 0.7088488000488276 0.03648890812678804 -0.7044160264027586
vn 0.7088488000488276 0.03648890812678804 -0.7044160264027586
vn 0.7088488000488276 0.03648890812678804 -0.7044160264027586
vn -0.7088488000488276 -0.03648890812678804 0.7044160264027586
vn -0.7088488000488276 -0.03648890812678804 0.7044160264027586
vn -0.7088488000488276 -0.03648890812678804 0.7044160264027586
vn -0.7088488000488276 -0.03648890812678804 0.7044160264027586
vn -0.7088488000488276 -0.03648890812678804 0.7044160264027586
vn -0.7088488000488276 -0.03648890812678804 0.7044160264027586
usemtl 2
f 1/1/1 3/2/2 2/3/3
f 3/4/4 4/5/5 2/6/6
usemtl 2
f 5/7/7 7/8/8 6/9/9
f 7/10/10 8/11/11 6/12/12
usemtl 2
f 5/13/13 6/14/14 2/15/15
f 6/16/16 1/17/17 2/18/18
usemtl 2
f 8/19/19 7/20/20 3/21/21
f 7/22/22 4/23/23 3/24/24
usemtl 2
f 6/25/25 8/26/26 1/27/27
f 8/28/28 3/29/29 1/30/30
usemtl 2
f 2/31/31 4/32/32 5/33/33
f 4/34/34 7/35/35 5/36/36
o cube
v -0.01007853712415746 0.043143005661388345 0.1635808910789582
v -0.1429876871333127 0.03630133538761557 0.2956588960294755
v 0.017995275710114916 -0.2047974754500308 0.17898799525801304
v -0.11491387429904029 -0.21163914572380355 0.3110660002085303
v 0.5968993182067078 0.16676337710464922 1.0469598510401825
v 0.729808468215863 0.17360504737842197 0.9148818460896653
v 0.6249731310409802 -0.08117710400676993 1.0623669552192374
v 0.7578822810501353 -0.07433543373299716 0.9302889502687202
vt 0.000244140625 0.781005859375
vt 0.000244140625 0.718994140625
vt 0.046630859375 0.781005859375
vt 0.000244140625 0.718994140625
vt 0.046630859375 0.718994140625
vt 0.046630859375 0.781005859375
vt 0.312744140625 0.781005859375
vt 0.312744140625 0.718994140625
vt 0.359130859375 0.781005859375
vt 0.312744140625 0.718994140625
vt 0.359130859375 0.718994140625
vt 0.359130859375 0.781005859375
vt 0.312255859375 0.781494140625
vt 0.312255859375 0.827880859375
vt 0.047119140625 0.781494140625
vt 0.312255859375 0.827880859375
vt 0.047119140625 0.827880859375
vt 0.047119140625 0.781494140625
vt 0.577880859375 0.827880859375
vt 0.577880859375 0.781494140625
vt 0.312744140625 0.827880859375
vt 0.577880859375 0.781494140625
vt 0.312744140625 0.781494140625
vt 0.312744140625 0.827880859375
vt 0.359619140625 0.781005859375
vt 0.359619140625 0.718994140625
vt 0.624755859375 0.781005859375
vt 0.359619140625 0.718994140625
vt 0.624755859375 0.718994140625
vt 0.624755859375 0.781005859375
vt 0.047119140625 0.781005859375
vt 0.047119140625 0.718994140625
vt 0.312255859375 0.781005859375
vt 0.047119140625 0.718994140625
vt 0.312255859375 0.718994140625
vt 0.312255859375 0.781005859375
vn -0.6963642403200186 -0.12278780396897279 -0.7071067811865472
vn -0.6963642403200186 -0.12278780396897279 -0.7071067811865472
vn -0.6963642403200186 -0.12278780396897279 -0.7071067811865472
vn -0.6963642403200186 -0.12278780396897279 -0.7071067811865472
vn -0.6963642403200186 -0.12278780396897279 -0.7071067811865472
vn -0.6963642403200186 -0.12278780396897279 -0.7071067811865472
vn 0.6963642403200186 0.12278780396897279 0.7071067811865472
vn 0.6963642403200186 0.12278780396897279 0.7071067811865472
vn 0.6963642403200186 0.12278780396897279 0.7071067811865472
vn 0.6963642403200186 0.12278780396897279 0.7071067811865472
vn 0.6963642403200186 0.12278780396897279 0.7071067811865472
vn 0.6963642403200186 0.12278780396897279 0.7071067811865472
vn -0.11229525133708944 0.9917619244456766 -0.06162841671621931
vn -0.11229525133708944 0.9917619244456766 -0.06162841671621931
vn -0.11229525133708944 0.9917619244456766 -0.06162841671621931
vn -0.11229525133708944 0.9917619244456766 -0.06162841671621931
vn -0.11229525133708944 0.9917619244456766 -0.06162841671621931
vn -0.11229525133708944 0.9917619244456766 -0.06162841671621931
vn 0.11229525133708944 -0.9917619244456766 0.06162841671621931
vn 0.11229525133708944 -0.9917619244456766 0.06162841671621931
vn 0.11229525133708944 -0.9917619244456766 0.06162841671621931
vn 0.11229525133708944 -0.9917619244456766 0.06162841671621931
vn 0.11229525133708944 -0.9917619244456766 0.06162841671621931
vn 0.11229525133708944 -0.9917619244456766 0.06162841671621931
vn 0.7088488000488274 0.036488908126788046 -0.7044160264027585
vn 0.7088488000488274 0.036488908126788046 -0.7044160264027585
vn 0.7088488000488274 0.036488908126788046 -0.7044160264027585
vn 0.7088488000488274 0.036488908126788046 -0.7044160264027585
vn 0.7088488000488274 0.036488908126788046 -0.7044160264027585
vn 0.7088488000488274 0.036488908126788046 -0.7044160264027585
vn -0.7088488000488274 -0.036488908126788046 0.7044160264027585
vn -0.7088488000488274 -0.036488908126788046 0.7044160264027585
vn -0.7088488000488274 -0.036488908126788046 0.7044160264027585
vn -0.7088488000488274 -0.036488908126788046 0.7044160264027585
vn -0.7088488000488274 -0.036488908126788046 0.7044160264027585
vn -0.7088488000488274 -0.036488908126788046 0.7044160264027585
usemtl 2
f 9/37/37 11/38/38 10/39/39
f 11/40/40 12/41/41 10/42/42
usemtl 2
f 13/43/43 15/44/44 14/45/45
f 15/46/46 16/47/47 14/48/48
usemtl 2
f 13/49/49 14/50/50 10/51/51
f 14/52/52 9/53/53 10/54/54
usemtl 2
f 16/55/55 15/56/56 11/57/57
f 15/58/58 12/59/59 11/60/60
usemtl 2
f 14/61/61 16/62/62 9/63/63
f 16/64/64 11/65/65 9/66/66
usemtl 2
f 10/67/67 12/68/68 13/69/69
f 12/70/70 15/71/71 13/72/72
