# Blender v2.79 (sub 1) OBJ File: 'circle.obj'
# www.blender.org
mtllib circle.mtl
o Plane
v -0.500000 -0.000000 0.500000
v -0.500000 0.000000 -0.500000
v 0.500000 0.000000 -0.500000
v 0.500000 -0.000000 0.500000
v -0.500000 0.002337 0.500000
v 0.500000 0.002337 0.500000
v 0.500000 0.002338 -0.500000
v -0.500000 0.002338 -0.500000
vt 0.000200 0.000200
vt 0.999800 0.999800
vt 0.000200 0.999800
vt 0.999800 0.000200
vt 0.000200 0.999800
vt 0.000200 0.000200
vt 1.001070 0.500000
vt 0.998739 0.000000
vt 1.001070 0.000000
vt 1.008065 0.500000
vt 1.005733 0.000000
vt 1.008065 0.000000
vt 1.003402 0.500000
vt 1.001071 0.000000
vt 1.003402 0.000000
vt 1.003402 0.000000
vt 1.005734 0.500000
vt 1.003402 0.500000
vt 0.999800 0.000200
vt 0.999800 0.999800
vt 0.998739 0.500000
vt 1.001071 0.500000
vt 1.005733 0.000000
vn 0.0000 -1.0000 -0.0000
vn 0.0000 1.0000 0.0000
vn 1.0000 0.0000 0.0000
vn -1.0000 0.0000 0.0000
vn 0.0000 0.0000 -1.0000
vn 0.0000 0.0000 1.0000
usemtl None
s 1
f 2/1/1 4/2/1 1/3/1
f 6/4/2 8/5/2 5/6/2
f 3/7/3 6/8/3 4/9/3
f 1/10/4 8/11/4 2/12/4
f 2/13/5 7/14/5 3/15/5
f 4/16/6 5/17/6 1/18/6
f 2/1/1 3/19/1 4/2/1
f 6/4/2 7/20/2 8/5/2
f 3/7/3 7/21/3 6/8/3
f 1/10/4 5/17/4 8/11/4
f 2/13/5 8/22/5 7/14/5
f 4/16/6 6/23/6 5/17/6
