# Blender v2.82 (sub 7) OBJ File: ''
# www.blender.org
mtllib crystal-5.mtl
o crystal
v 0.545400 0.252100 0.249100
v 0.551800 -0.003100 0.229700
v 0.696800 0.252100 0.326900
v 0.665200 -0.003100 0.288300
v 0.781900 0.252100 0.179500
v 0.728800 -0.003100 0.177600
v 0.630500 0.252100 0.101800
v 0.615400 -0.003100 0.119000
v 0.655500 0.422300 0.216700
vt 0.500000 0.500000
vt 0.000000 1.000000
vt 1.000000 1.000000
vt 0.000000 1.000000
vt 1.000000 1.000000
vt 0.000000 1.000000
vt 1.000000 1.000000
vt 0.000000 1.000000
vt 1.000000 1.000000
vt 0.000000 0.000000
vt 1.000000 0.000000
vt 0.000000 0.000000
vt 1.000000 0.000000
vt 0.000000 0.000000
vt 1.000000 0.000000
vt 0.000000 0.000000
vt 1.000000 0.000000
vn -0.4144 0.4216 0.8065
vn 0.7640 0.4710 0.4411
vn 0.4028 0.4707 -0.7849
vn -0.7852 0.4216 -0.4536
vn -0.9267 0.2382 0.2905
vn -0.9666 -0.0428 0.2524
vn 0.2987 0.1821 0.9368
vn 0.2423 -0.1749 0.9543
vn 0.9449 0.1955 -0.2626
vn 0.9315 -0.1906 -0.3096
vn -0.2510 0.2417 -0.9373
vn -0.3142 -0.0460 -0.9482
usemtl Material__25
s off
f 9/1/1 1/2/1 3/3/1
f 9/1/2 3/4/2 5/5/2
f 9/1/3 5/6/3 7/7/3
f 9/1/4 7/8/4 1/9/4
s 1
f 1/2/5 2/10/6 3/3/7
f 4/11/8 3/3/7 2/10/6
f 3/4/7 4/12/8 5/5/9
f 6/13/10 5/5/9 4/12/8
f 5/6/9 6/14/10 7/7/11
f 8/15/12 7/7/11 6/14/10
f 7/8/11 8/16/12 1/9/5
f 2/17/6 1/9/5 8/16/12
