# Blender v2.82 (sub 7) OBJ File: ''
# www.blender.org
mtllib crystal-6.mtl
o crystal
v 0.924800 -0.003100 0.354200
v 0.818500 -0.003100 0.321500
v 0.816200 0.160600 0.293600
v 0.958100 0.160600 0.336800
v 0.784300 -0.003100 0.427400
v 0.770300 0.160600 0.434700
v 0.890700 -0.003100 0.460100
v 0.912200 0.160600 0.477900
v 0.870700 0.269700 0.382400
vt 0.000000 1.000000
vt 1.000000 1.000000
vt 0.500000 0.500000
vt 0.000000 1.000000
vt 1.000000 1.000000
vt 0.000000 1.000000
vt 1.000000 1.000000
vt 0.000000 1.000000
vt 1.000000 1.000000
vt 0.000000 0.000000
vt 1.000000 0.000000
vt 0.000000 0.000000
vt 1.000000 0.000000
vt 0.000000 0.000000
vt 1.000000 0.000000
vt 0.000000 0.000000
vt 1.000000 0.000000
vn 0.2461 0.5349 -0.8083
vn -0.7692 0.5879 -0.2502
vn -0.2356 0.5878 0.7739
vn 0.8037 0.5346 0.2614
vn 0.8642 -0.2228 -0.4511
vn -0.4840 -0.1543 -0.8613
vn -0.4376 0.2524 -0.8630
vn 0.8664 0.2124 -0.4519
vn -0.8826 -0.0951 0.4603
vn -0.8471 0.2955 0.4417
vn 0.4274 -0.1540 0.8909
vn 0.4561 0.2526 0.8533
usemtl Material__25
s off
f 4/1/1 3/2/1 9/3/1
f 3/4/2 6/5/2 9/3/2
f 6/6/3 8/7/3 9/3/3
f 8/8/4 4/9/4 9/3/4
s 1
f 1/10/5 2/11/6 3/2/7
f 3/2/7 4/1/8 1/10/5
f 2/12/6 5/13/9 6/5/10
f 6/5/10 3/4/7 2/12/6
f 5/14/9 7/15/11 8/7/12
f 8/7/12 6/6/10 5/14/9
f 7/16/11 1/17/5 4/9/8
f 4/9/8 8/8/12 7/16/11
