# Blender v2.82 (sub 7) OBJ File: ''
# www.blender.org
mtllib crystal-3.mtl
o crystal
v 0.114200 0.251800 0.308600
v 0.134300 -0.003100 0.334300
v 0.088700 0.251800 0.476600
v 0.114800 -0.003100 0.460200
v 0.257900 0.251800 0.492600
v 0.241700 -0.003100 0.471800
v 0.283400 0.251800 0.324500
v 0.261200 -0.003100 0.345900
v 0.185100 0.421600 0.399300
vt 0.500000 0.500000
vt 0.000000 1.000000
vt 1.000000 1.000000
vt 0.000000 1.000000
vt 1.000000 1.000000
vt 0.000000 1.000000
vt 1.000000 1.000000
vt 0.000000 1.000000
vt 1.000000 1.000000
vt 0.000000 0.000000
vt 1.000000 0.000000
vt 0.000000 0.000000
vt 1.000000 0.000000
vt 0.000000 0.000000
vt 1.000000 0.000000
vt 0.000000 0.000000
vt 1.000000 0.000000
vn -0.8868 0.4422 -0.1346
vn -0.0840 0.4520 0.8881
vn 0.8821 0.4517 0.1338
vn 0.0839 0.4420 -0.8931
vn -0.6030 0.2036 -0.7714
vn -0.6110 -0.1261 -0.7815
vn -0.7706 0.2180 0.5988
vn -0.7790 -0.1203 0.6153
vn 0.6005 0.2199 0.7687
vn 0.6128 -0.1020 0.7836
vn 0.7679 0.2179 -0.6023
vn 0.7866 -0.1201 -0.6056
usemtl Material__25
s off
f 9/1/1 1/2/1 3/3/1
f 9/1/2 3/4/2 5/5/2
f 9/1/3 5/6/3 7/7/3
f 9/1/4 7/8/4 1/9/4
s 1
f 1/2/5 2/10/6 3/3/7
f 4/11/8 3/3/7 2/10/6
f 3/4/7 4/12/8 5/5/9
f 6/13/10 5/5/9 4/12/8
f 5/6/9 6/14/10 7/7/11
f 8/15/12 7/7/11 6/14/10
f 7/8/11 8/16/12 1/9/5
f 2/17/6 1/9/5 8/16/12
