# Blender v2.82 (sub 7) OBJ File: ''
# www.blender.org
mtllib crystal-1.mtl
o crystal
v 0.461500 0.227700 0.884700
v 0.481100 -0.003100 0.866300
v 0.615200 0.227700 0.892900
v 0.596400 -0.003100 0.872700
v 0.616800 0.227700 0.739000
v 0.597300 -0.003100 0.757300
v 0.463100 0.227700 0.730800
v 0.482100 -0.003100 0.750900
v 0.537200 0.381600 0.813700
vt 0.500000 0.500000
vt 0.000000 1.000000
vt 1.000000 1.000000
vt 0.000000 1.000000
vt 1.000000 1.000000
vt 0.000000 1.000000
vt 1.000000 1.000000
vt 0.000000 1.000000
vt 1.000000 1.000000
vt 0.000000 0.000000
vt 1.000000 0.000000
vt 0.000000 0.000000
vt 1.000000 0.000000
vt 0.000000 0.000000
vt 1.000000 0.000000
vt 0.000000 0.000000
vt 1.000000 0.000000
vn -0.0479 0.4378 0.8978
vn 0.8900 0.4558 0.0093
vn 0.0474 0.4559 -0.8888
vn -0.8990 0.4379 -0.0093
vn -0.7133 0.2076 0.6694
vn -0.7243 -0.1151 0.6798
vn 0.6690 0.2172 0.7107
vn 0.6793 -0.1195 0.7241
vn 0.7117 0.2172 -0.6680
vn 0.7240 -0.1144 -0.6802
vn -0.6665 0.2172 -0.7132
vn -0.6787 -0.1195 -0.7246
usemtl Material__25
s off
f 9/1/1 1/2/1 3/3/1
f 9/1/2 3/4/2 5/5/2
f 9/1/3 5/6/3 7/7/3
f 9/1/4 7/8/4 1/9/4
s 1
f 1/2/5 2/10/6 3/3/7
f 4/11/8 3/3/7 2/10/6
f 3/4/7 4/12/8 5/5/9
f 6/13/10 5/5/9 4/12/8
f 5/6/9 6/14/10 7/7/11
f 8/15/12 7/7/11 6/14/10
f 7/8/11 8/16/12 1/9/5
f 2/17/6 1/9/5 8/16/12
