# Blender v2.82 (sub 7) OBJ File: ''
# www.blender.org
mtllib crystal-8.mtl
o crystal
v 0.385900 -0.003100 0.553400
v 0.552300 -0.003100 0.615900
v 0.567300 0.283400 0.656400
v 0.345400 0.283400 0.573600
v 0.602400 -0.003100 0.445400
v 0.634700 0.283400 0.429300
v 0.436100 -0.003100 0.382900
v 0.412700 0.283400 0.346500
v 0.487300 0.486800 0.502800
vt 0.000000 1.000000
vt 1.000000 1.000000
vt 0.500000 0.500000
vt 0.000000 1.000000
vt 1.000000 1.000000
vt 0.000000 1.000000
vt 1.000000 1.000000
vt 0.000000 1.000000
vt 1.000000 1.000000
vt 0.000000 0.000000
vt 1.000000 0.000000
vt 0.000000 0.000000
vt 1.000000 0.000000
vt 0.000000 0.000000
vt 1.000000 0.000000
vt 0.000000 0.000000
vt 1.000000 0.000000
vn -0.3037 0.4952 0.8140
vn 0.8250 0.5094 0.2448
vn 0.3007 0.5093 -0.8063
vn -0.8330 0.4952 -0.2468
vn -0.8838 -0.1553 0.4413
vn 0.4483 -0.1490 0.8814
vn 0.4313 0.2339 0.8713
vn -0.8735 0.2164 0.4360
vn 0.8876 -0.1242 -0.4435
vn 0.8690 0.2379 -0.4337
vn -0.4333 -0.1489 -0.8888
vn -0.4363 0.2338 -0.8689
usemtl Material__25
s off
f 4/1/1 3/2/1 9/3/1
f 3/4/2 6/5/2 9/3/2
f 6/6/3 8/7/3 9/3/3
f 8/8/4 4/9/4 9/3/4
s 1
f 1/10/5 2/11/6 3/2/7
f 3/2/7 4/1/8 1/10/5
f 2/12/6 5/13/9 6/5/10
f 6/5/10 3/4/7 2/12/6
f 5/14/9 7/15/11 8/7/12
f 8/7/12 6/6/10 5/14/9
f 7/16/11 1/17/5 4/9/8
f 4/9/8 8/8/12 7/16/11
