# Blender v2.82 (sub 7) OBJ File: ''
# www.blender.org
mtllib crystal-4.mtl
o crystal
v 0.357100 -0.003100 0.142700
v 0.356200 -0.003100 0.258900
v 0.324100 0.167700 0.267700
v 0.325700 0.167700 0.112800
v 0.472100 -0.003100 0.252200
v 0.478700 0.167700 0.258400
v 0.473100 -0.003100 0.136000
v 0.480300 0.167700 0.103500
v 0.393300 0.281600 0.177200
vt 0.000000 1.000000
vt 1.000000 1.000000
vt 0.500000 0.500000
vt 0.000000 1.000000
vt 1.000000 1.000000
vt 0.000000 1.000000
vt 1.000000 1.000000
vt 0.000000 1.000000
vt 1.000000 1.000000
vt 0.000000 0.000000
vt 1.000000 0.000000
vt 0.000000 0.000000
vt 1.000000 0.000000
vt 0.000000 0.000000
vt 1.000000 0.000000
vt 0.000000 0.000000
vt 1.000000 0.000000
vn -0.8577 0.5141 -0.0089
vn 0.0479 0.6034 0.7960
vn 0.7972 0.6036 0.0082
vn -0.0515 0.5145 -0.8559
vn -0.7017 -0.2468 -0.6684
vn -0.6421 -0.1585 0.7500
vn -0.6782 0.2548 0.6892
vn -0.7118 0.1844 -0.6777
vn 0.7228 -0.0535 0.6889
vn 0.6873 0.3157 0.6541
vn 0.7165 -0.1587 -0.6793
vn 0.6543 0.2548 -0.7120
usemtl Material__25
s off
f 4/1/1 3/2/1 9/3/1
f 3/4/2 6/5/2 9/3/2
f 6/6/3 8/7/3 9/3/3
f 8/8/4 4/9/4 9/3/4
s 1
f 1/10/5 2/11/6 3/2/7
f 3/2/7 4/1/8 1/10/5
f 2/12/6 5/13/9 6/5/10
f 6/5/10 3/4/7 2/12/6
f 5/14/9 7/15/11 8/7/12
f 8/7/12 6/6/10 5/14/9
f 7/16/11 1/17/5 4/9/8
f 4/9/8 8/8/12 7/16/11
