# Blender v2.82 (sub 7) OBJ File: ''
# www.blender.org
mtllib crystal-7.mtl
o crystal
v 0.777600 0.242000 0.533800
v 0.774900 -0.003100 0.558200
v 0.651900 0.242000 0.638200
v 0.680500 -0.003100 0.636400
v 0.752000 0.242000 0.767400
v 0.755800 -0.003100 0.733100
v 0.877700 0.242000 0.663000
v 0.850200 -0.003100 0.654900
v 0.764500 0.405400 0.653800
vt 0.500000 0.500000
vt 0.000000 1.000000
vt 1.000000 1.000000
vt 0.000000 1.000000
vt 1.000000 1.000000
vt 0.000000 1.000000
vt 1.000000 1.000000
vt 0.000000 1.000000
vt 1.000000 1.000000
vt 0.000000 0.000000
vt 1.000000 0.000000
vt 0.000000 0.000000
vt 1.000000 0.000000
vt 0.000000 0.000000
vt 1.000000 0.000000
vt 0.000000 0.000000
vt 1.000000 0.000000
vn -0.5683 0.4570 -0.6843
vn -0.7109 0.4373 0.5508
vn 0.5747 0.4371 0.6919
vn 0.7033 0.4566 -0.5449
vn 0.1059 0.2308 -0.9672
vn 0.1076 -0.0993 -0.9892
vn -0.9714 0.2133 -0.1040
vn -0.9864 -0.1149 -0.1176
vn -0.1067 0.2024 0.9734
vn -0.1070 -0.1390 0.9845
vn 0.9709 0.2131 0.1094
vn 0.9885 -0.1149 0.0985
usemtl Material__25
s off
f 9/1/1 1/2/1 3/3/1
f 9/1/2 3/4/2 5/5/2
f 9/1/3 5/6/3 7/7/3
f 9/1/4 7/8/4 1/9/4
s 1
f 1/2/5 2/10/6 3/3/7
f 4/11/8 3/3/7 2/10/6
f 3/4/7 4/12/8 5/5/9
f 6/13/10 5/5/9 4/12/8
f 5/6/9 6/14/10 7/7/11
f 8/15/12 7/7/11 6/14/10
f 7/8/11 8/16/12 1/9/5
f 2/17/6 1/9/5 8/16/12
