# Made in Blockbench 4.10.3
mtllib advanced_solar_generator.mtl

o pole
v 0.125 1.0625 0.125
v 0.125 1.0625 -0.125
v 0.125 -0.75 0.125
v 0.125 -0.75 -0.125
v -0.125 1.0625 -0.125
v -0.125 1.0625 0.125
v -0.125 -0.75 -0.125
v -0.125 -0.75 0.125
vt 0.6875 1
vt 0.625 1
vt 0.625 0.546875
vt 0.6875 0.546875
vt 0.625 1
vt 0.5625 1
vt 0.5625 0.546875
vt 0.625 0.546875
vt 0.75 1
vt 0.6875 1
vt 0.6875 0.546875
vt 0.75 0.546875
vt 0.625 1
vt 0.5625 1
vt 0.5625 0.546875
vt 0.625 0.546875
vn 0 0 -1
vn 1 0 0
vn 0 0 1
vn -1 0 0
usemtl m_3fc594a4-16f5-05aa-aade-61647d111d2b
f 7/3/1 5/2/1 2/1/1
f 4/4/1 7/3/1 2/1/1
f 4/7/2 2/6/2 1/5/2
f 3/8/2 4/7/2 1/5/2
f 3/11/3 1/10/3 6/9/3
f 8/12/3 3/11/3 6/9/3
f 8/15/4 6/14/4 5/13/4
f 7/16/4 8/15/4 5/13/4
o tube1
v -0.125 1 0.375
v -0.125 1 -0.375
v -0.125 0.875 0.375
v -0.125 0.875 -0.375
v -0.25 1 -0.375
v -0.25 1 0.375
v -0.25 0.875 -0.375
v -0.25 0.875 0.375
vt 0.75 0.671875
vt 0.78125 0.671875
vt 0.78125 0.640625
vt 0.75 0.640625
vt 0.78125 0.671875
vt 0.9375 0.671875
vt 0.9375 0.640625
vt 0.78125 0.640625
vt 0.9375 0.671875
vt 0.96875 0.671875
vt 0.96875 0.640625
vt 0.9375 0.640625
vt 0.78125 0.671875
vt 0.9375 0.671875
vt 0.9375 0.640625
vt 0.78125 0.640625
vt 0.78125 0.6875
vt 0.9375 0.6875
vt 0.9375 0.65625
vt 0.78125 0.65625
vt 0.78125 0.625
vt 0.78125 0.65625
vt 0.9375 0.65625
vt 0.9375 0.625
vn 0 0 -1
vn 1 0 0
vn 0 0 1
vn -1 0 0
vn 0 1 0
vn 0 -1 0
usemtl m_3fc594a4-16f5-05aa-aade-61647d111d2b
f 15/19/5 13/18/5 10/17/5
f 12/20/5 15/19/5 10/17/5
f 12/23/6 10/22/6 9/21/6
f 11/24/6 12/23/6 9/21/6
f 11/27/7 9/26/7 14/25/7
f 16/28/7 11/27/7 14/25/7
f 16/31/8 14/30/8 13/29/8
f 15/32/8 16/31/8 13/29/8
f 9/35/9 10/34/9 13/33/9
f 14/36/9 9/35/9 13/33/9
f 12/39/10 11/38/10 16/37/10
f 15/40/10 12/39/10 16/37/10
o tube2
v 0.25 1 0.375
v 0.25 1 -0.375
v 0.25 0.875 0.375
v 0.25 0.875 -0.375
v 0.125 1 -0.375
v 0.125 1 0.375
v 0.125 0.875 -0.375
v 0.125 0.875 0.375
vt 0.75 0.671875
vt 0.78125 0.671875
vt 0.78125 0.640625
vt 0.75 0.640625
vt 0.78125 0.671875
vt 0.9375 0.671875
vt 0.9375 0.640625
vt 0.78125 0.640625
vt 0.9375 0.671875
vt 0.96875 0.671875
vt 0.96875 0.640625
vt 0.9375 0.640625
vt 0.78125 0.671875
vt 0.9375 0.671875
vt 0.9375 0.640625
vt 0.78125 0.640625
vt 0.78125 0.6875
vt 0.9375 0.6875
vt 0.9375 0.65625
vt 0.78125 0.65625
vt 0.78125 0.625
vt 0.78125 0.65625
vt 0.9375 0.65625
vt 0.9375 0.625
vn 0 0 -1
vn 1 0 0
vn 0 0 1
vn -1 0 0
vn 0 1 0
vn 0 -1 0
usemtl m_3fc594a4-16f5-05aa-aade-61647d111d2b
f 23/43/11 21/42/11 18/41/11
f 20/44/11 23/43/11 18/41/11
f 20/47/12 18/46/12 17/45/12
f 19/48/12 20/47/12 17/45/12
f 19/51/13 17/50/13 22/49/13
f 24/52/13 19/51/13 22/49/13
f 24/55/14 22/54/14 21/53/14
f 23/56/14 24/55/14 21/53/14
f 17/59/15 18/58/15 21/57/15
f 22/60/15 17/59/15 21/57/15
f 20/63/16 19/62/16 24/61/16
f 23/64/16 20/63/16 24/61/16
o barrel
v 0.25 1.4375 0.1875
v 0.25 1.4375 -0.1875
v 0.25 1.0625 0.1875
v 0.25 1.0625 -0.1875
v -0.25 1.4375 -0.1875
v -0.25 1.4375 0.1875
v -0.25 1.0625 -0.1875
v -0.25 1.0625 0.1875
vt 0.84375 1
vt 0.96875 1
vt 0.96875 0.90625
vt 0.84375 0.90625
vt 0.75 1
vt 0.84375 1
vt 0.84375 0.90625
vt 0.75 0.90625
vt 0.84375 0.90625
vt 0.96875 0.90625
vt 0.96875 0.8125
vt 0.84375 0.8125
vt 0.75 0.90625
vt 0.84375 0.90625
vt 0.84375 0.8125
vt 0.75 0.8125
vt 0.84375 1
vt 0.96875 1
vt 0.96875 0.90625
vt 0.84375 0.90625
vt 0.96875 0.8125
vt 0.84375 0.8125
vt 0.84375 0.90625
vt 0.96875 0.90625
vn 0 0 -1
vn 1 0 0
vn 0 0 1
vn -1 0 0
vn 0 1 0
vn 0 -1 0
usemtl m_3fc594a4-16f5-05aa-aade-61647d111d2b
f 31/67/17 29/66/17 26/65/17
f 28/68/17 31/67/17 26/65/17
f 28/71/18 26/70/18 25/69/18
f 27/72/18 28/71/18 25/69/18
f 27/75/19 25/74/19 30/73/19
f 32/76/19 27/75/19 30/73/19
f 32/79/20 30/78/20 29/77/20
f 31/80/20 32/79/20 29/77/20
f 25/83/21 26/82/21 29/81/21
f 30/84/21 25/83/21 29/81/21
f 28/87/22 27/86/22 32/85/22
f 31/88/22 28/87/22 32/85/22
o ring1
v -0.125 1.5 0.25
v -0.125 1.5 -0.25
v -0.125 1 0.25
v -0.125 1 -0.25
v -0.1875 1.5 -0.25
v -0.1875 1.5 0.25
v -0.1875 1 -0.25
v -0.1875 1 0.25
vt 0.875 0.625
vt 0.890625 0.625
vt 0.890625 0.5
vt 0.875 0.5
vt 0.75 0.625
vt 0.875 0.625
vt 0.875 0.5
vt 0.75 0.5
vt 0.875 0.625
vt 0.890625 0.625
vt 0.890625 0.5
vt 0.875 0.5
vt 0.75 0.625
vt 0.875 0.625
vt 0.875 0.5
vt 0.75 0.5
vt 0.890625 0.625
vt 0.90625 0.625
vt 0.90625 0.5
vt 0.890625 0.5
vn 0 0 -1
vn 1 0 0
vn 0 0 1
vn -1 0 0
vn 0 1 0
usemtl m_3fc594a4-16f5-05aa-aade-61647d111d2b
f 39/91/23 37/90/23 34/89/23
f 36/92/23 39/91/23 34/89/23
f 36/95/24 34/94/24 33/93/24
f 35/96/24 36/95/24 33/93/24
f 35/99/25 33/98/25 38/97/25
f 40/100/25 35/99/25 38/97/25
f 40/103/26 38/102/26 37/101/26
f 39/104/26 40/103/26 37/101/26
f 33/107/27 34/106/27 37/105/27
f 38/108/27 33/107/27 37/105/27
o ring2
v 0.1875 1.5 0.25
v 0.1875 1.5 -0.25
v 0.1875 1 0.25
v 0.1875 1 -0.25
v 0.125 1.5 -0.25
v 0.125 1.5 0.25
v 0.125 1 -0.25
v 0.125 1 0.25
vt 0.875 0.625
vt 0.890625 0.625
vt 0.890625 0.5
vt 0.875 0.5
vt 0.75 0.625
vt 0.875 0.625
vt 0.875 0.5
vt 0.75 0.5
vt 0.875 0.625
vt 0.890625 0.625
vt 0.890625 0.5
vt 0.875 0.5
vt 0.75 0.625
vt 0.875 0.625
vt 0.875 0.5
vt 0.75 0.5
vt 0.890625 0.625
vt 0.90625 0.625
vt 0.90625 0.5
vt 0.890625 0.5
vn 0 0 -1
vn 1 0 0
vn 0 0 1
vn -1 0 0
vn 0 1 0
usemtl m_3fc594a4-16f5-05aa-aade-61647d111d2b
f 47/111/28 45/110/28 42/109/28
f 44/112/28 47/111/28 42/109/28
f 44/115/29 42/114/29 41/113/29
f 43/116/29 44/115/29 41/113/29
f 43/119/30 41/118/30 46/117/30
f 48/120/30 43/119/30 46/117/30
f 48/123/31 46/122/31 45/121/31
f 47/124/31 48/123/31 45/121/31
f 41/127/32 42/126/32 45/125/32
f 46/128/32 41/127/32 45/125/32
o connector
v 0.1875 -0.8125 -0.25
v 0.1875 -0.8125 -0.4375
v 0.1875 -1.1875 -0.25
v 0.1875 -1.1875 -0.4375
v -0.1875 -0.8125 -0.4375
v -0.1875 -0.8125 -0.25
v -0.1875 -1.1875 -0.4375
v -0.1875 -1.1875 -0.25
vt 0.796875 0.34375
vt 0.84375 0.34375
vt 0.84375 0.25
vt 0.796875 0.25
vt 0.75 0.34375
vt 0.796875 0.34375
vt 0.796875 0.25
vt 0.75 0.25
vt 0.75 0.484375
vt 0.84375 0.484375
vt 0.84375 0.4375
vt 0.75 0.4375
vt 0.84375 0.390625
vt 0.9375 0.390625
vt 0.9375 0.34375
vt 0.84375 0.34375
vn 1 0 0
vn -1 0 0
vn 0 1 0
vn 0 -1 0
usemtl m_3fc594a4-16f5-05aa-aade-61647d111d2b
f 52/131/33 50/130/33 49/129/33
f 51/132/33 52/131/33 49/129/33
f 56/135/34 54/134/34 53/133/34
f 55/136/34 56/135/34 53/133/34
f 49/139/35 50/138/35 53/137/35
f 54/140/35 49/139/35 53/137/35
f 52/143/36 51/142/36 56/141/36
f 55/144/36 52/143/36 56/141/36
o base
v 0.5 -1.375 0.5
v 0.5 -1.375 -0.5
v 0.5 -1.5 0.5
v 0.5 -1.5 -0.5
v -0.5 -1.375 -0.5
v -0.5 -1.375 0.5
v -0.5 -1.5 -0.5
v -0.5 -1.5 0.5
vt 0.25 0
vt 0.25 0.25
vt 0.28125 0.25
vt 0.28125 0
vt 0.25 0
vt 0.25 0.25
vt 0.28125 0.25
vt 0.28125 0
vt 0.25 0
vt 0.25 0.25
vt 0.28125 0.25
vt 0.28125 0
vt 0.25 0
vt 0.25 0.25
vt 0.28125 0.25
vt 0.28125 0
vt 0 0
vt 0 0.25
vt 0.25 0.25
vt 0.25 0
vt 0.28125 0
vt 0.28125 0.25
vt 0.53125 0.25
vt 0.53125 0
vn 0 0 -1
vn 1 0 0
vn 0 0 1
vn -1 0 0
vn 0 1 0
vn 0 -1 0
usemtl m_3fc594a4-16f5-05aa-aade-61647d111d2b
f 63/147/37 61/146/37 58/145/37
f 60/148/37 63/147/37 58/145/37
f 60/151/38 58/150/38 57/149/38
f 59/152/38 60/151/38 57/149/38
f 59/155/39 57/154/39 62/153/39
f 64/156/39 59/155/39 62/153/39
f 64/159/40 62/158/40 61/157/40
f 63/160/40 64/159/40 61/157/40
f 57/163/41 58/162/41 61/161/41
f 62/164/41 57/163/41 61/161/41
f 60/167/42 59/166/42 64/165/42
f 63/168/42 60/167/42 64/165/42
o base2
v 0.3125 -1.25 0.3125
v 0.3125 -1.25 -0.3125
v 0.3125 -1.375 0.3125
v 0.3125 -1.375 -0.3125
v -0.3125 -1.25 -0.3125
v -0.3125 -1.25 0.3125
v -0.3125 -1.375 -0.3125
v -0.3125 -1.375 0.3125
vt 0.5625 0.28125
vt 0.71875 0.28125
vt 0.71875 0.25
vt 0.5625 0.25
vt 0.5625 0.28125
vt 0.71875 0.28125
vt 0.71875 0.25
vt 0.5625 0.25
vt 0.5625 0.28125
vt 0.71875 0.28125
vt 0.71875 0.25
vt 0.5625 0.25
vt 0.5625 0.28125
vt 0.71875 0.28125
vt 0.71875 0.25
vt 0.5625 0.25
vt 0.5625 0.4375
vt 0.71875 0.4375
vt 0.71875 0.28125
vt 0.5625 0.28125
vn 0 0 -1
vn 1 0 0
vn 0 0 1
vn -1 0 0
vn 0 1 0
usemtl m_3fc594a4-16f5-05aa-aade-61647d111d2b
f 71/171/43 69/170/43 66/169/43
f 68/172/43 71/171/43 66/169/43
f 68/175/44 66/174/44 65/173/44
f 67/176/44 68/175/44 65/173/44
f 67/179/45 65/178/45 70/177/45
f 72/180/45 67/179/45 70/177/45
f 72/183/46 70/182/46 69/181/46
f 71/184/46 72/183/46 69/181/46
f 65/187/47 66/186/47 69/185/47
f 70/188/47 65/187/47 69/185/47
o base3
v 0.25 -0.75 0.25
v 0.25 -0.75 -0.25
v 0.25 -1.25 0.25
v 0.25 -1.25 -0.25
v -0.25 -0.75 -0.25
v -0.25 -0.75 0.25
v -0.25 -1.25 -0.25
v -0.25 -1.25 0.25
vt 0.75 0.8125
vt 0.875 0.8125
vt 0.875 0.6875
vt 0.75 0.6875
vt 0.75 0.8125
vt 0.875 0.8125
vt 0.875 0.6875
vt 0.75 0.6875
vt 0.75 0.8125
vt 0.875 0.8125
vt 0.875 0.6875
vt 0.75 0.6875
vt 0.75 0.8125
vt 0.875 0.8125
vt 0.875 0.6875
vt 0.75 0.6875
vt 0.875 0.8125
vt 1 0.8125
vt 1 0.6875
vt 0.875 0.6875
vn 0 0 -1
vn 1 0 0
vn 0 0 1
vn -1 0 0
vn 0 1 0
usemtl m_3fc594a4-16f5-05aa-aade-61647d111d2b
f 79/191/48 77/190/48 74/189/48
f 76/192/48 79/191/48 74/189/48
f 76/195/49 74/194/49 73/193/49
f 75/196/49 76/195/49 73/193/49
f 75/199/50 73/198/50 78/197/50
f 80/200/50 75/199/50 78/197/50
f 80/203/51 78/202/51 77/201/51
f 79/204/51 80/203/51 77/201/51
f 73/207/52 74/206/52 77/205/52
f 78/208/52 73/207/52 77/205/52
o port
v 0.25 -0.75 -0.4375
v 0.25 -0.75 -0.5
v 0.25 -1.25 -0.4375
v 0.25 -1.25 -0.5
v -0.25 -0.75 -0.5
v -0.25 -0.75 -0.4375
v -0.25 -1.25 -0.5
v -0.25 -1.25 -0.4375
vt 0.5 0.5
vt 1 0.5
vt 1 0
vt 0.5 0
vt 0.9375 0.5
vt 1 0.5
vt 1 0
vt 0.9375 0
vt 0 0.5
vt 0.5 0.5
vt 0.5 0
vt 0 0
vt 0.5 0.5
vt 0.5625 0.5
vt 0.5625 0
vt 0.5 0
vt 0.5 0.5
vt 1 0.5
vt 1 0.4375
vt 0.5 0.4375
vt 0.5 0.0625
vt 1 0.0625
vt 1 0
vt 0.5 0
vn 0 0 -1
vn 1 0 0
vn 0 0 1
vn -1 0 0
vn 0 1 0
vn 0 -1 0
usemtl m_50dce1e3-32a8-86c5-2569-093dd12a55e9
f 87/211/53 85/210/53 82/209/53
f 84/212/53 87/211/53 82/209/53
f 84/215/54 82/214/54 81/213/54
f 83/216/54 84/215/54 81/213/54
f 83/219/55 81/218/55 86/217/55
f 88/220/55 83/219/55 86/217/55
f 88/223/56 86/222/56 85/221/56
f 87/224/56 88/223/56 85/221/56
f 81/227/57 82/226/57 85/225/57
f 86/228/57 81/227/57 85/225/57
f 84/231/58 83/230/58 88/229/58
f 87/232/58 84/231/58 88/229/58
o port_led1
v 0.1875 -0.8125 -0.5003125
v 0.1875 -0.8125 -0.5003125
v 0.1875 -0.875 -0.5003125
v 0.1875 -0.875 -0.5003125
v -0.1875 -0.8125 -0.5003125
v -0.1875 -0.8125 -0.5003125
v -0.1875 -0.875 -0.5003125
v -0.1875 -0.875 -0.5003125
vt 0.5625 0.4375
vt 0.9375 0.4375
vt 0.9375 0.375
vt 0.5625 0.375
vn 0 0 -1
usemtl m_d631e3cf-cf88-1b2b-bc6b-682fe0ee073a
f 95/235/59 93/234/59 90/233/59
f 92/236/59 95/235/59 90/233/59
o port_led2
v 0.1875 -1.125 -0.5003125
v 0.1875 -1.125 -0.5003125
v 0.1875 -1.1875 -0.5003125
v 0.1875 -1.1875 -0.5003125
v -0.1875 -1.125 -0.5003125
v -0.1875 -1.125 -0.5003125
v -0.1875 -1.1875 -0.5003125
v -0.1875 -1.1875 -0.5003125
vt 0.5625 0.125
vt 0.9375 0.125
vt 0.9375 0.0625
vt 0.5625 0.0625
vn 0 0 -1
usemtl m_d631e3cf-cf88-1b2b-bc6b-682fe0ee073a
f 103/239/60 101/238/60 98/237/60
f 100/240/60 103/239/60 98/237/60
o port_led3
v 0.1875 -0.875 -0.5003125
v 0.1875 -0.875 -0.5003125
v 0.1875 -1.125 -0.5003125
v 0.1875 -1.125 -0.5003125
v 0.125 -0.875 -0.5003125
v 0.125 -0.875 -0.5003125
v 0.125 -1.125 -0.5003125
v 0.125 -1.125 -0.5003125
vt 0.5625 0.375
vt 0.625 0.375
vt 0.625 0.125
vt 0.5625 0.125
vn 0 0 -1
usemtl m_d631e3cf-cf88-1b2b-bc6b-682fe0ee073a
f 111/243/61 109/242/61 106/241/61
f 108/244/61 111/243/61 106/241/61
o port_led4
v -0.125 -0.875 -0.5003125
v -0.125 -0.875 -0.5003125
v -0.125 -1.125 -0.5003125
v -0.125 -1.125 -0.5003125
v -0.1875 -0.875 -0.5003125
v -0.1875 -0.875 -0.5003125
v -0.1875 -1.125 -0.5003125
v -0.1875 -1.125 -0.5003125
vt 0.875 0.375
vt 0.9375 0.375
vt 0.9375 0.125
vt 0.875 0.125
vn 0 0 -1
usemtl m_d631e3cf-cf88-1b2b-bc6b-682fe0ee073a
f 119/247/62 117/246/62 114/245/62
f 116/248/62 119/247/62 114/245/62
o solar_panel_east
v 1.5 1.4375 1.5
v 1.5 1.4375 -1.5
v 1.5 1.375 1.5
v 1.5 1.375 -1.5
v 0.375 1.4375 -1.5
v 0.375 1.4375 1.5
v 0.375 1.375 -1.5
v 0.375 1.375 1.5
vt 0 0.265625
vt 0.28125 0.265625
vt 0.28125 0.25
vt 0 0.25
vt 0 0.25
vt 0 1
vt 0.015625 1
vt 0.015625 0.25
vt 0 1
vt 0.28125 1
vt 0.28125 0.984375
vt 0 0.984375
vt 0.265625 0.25
vt 0.265625 1
vt 0.28125 1
vt 0.28125 0.25
vt 0.28125 0.25
vt 0 0.25
vt 0 1
vt 0.28125 1
vt 0.28125 1
vt 0.5625 1
vt 0.5625 0.25
vt 0.28125 0.25
vn 0 0 -1
vn 1 0 0
vn 0 0 1
vn -1 0 0
vn 0 1 0
vn 0 -1 0
usemtl m_3fc594a4-16f5-05aa-aade-61647d111d2b
f 127/251/63 125/250/63 122/249/63
f 124/252/63 127/251/63 122/249/63
f 124/255/64 122/254/64 121/253/64
f 123/256/64 124/255/64 121/253/64
f 123/259/65 121/258/65 126/257/65
f 128/260/65 123/259/65 126/257/65
f 128/263/66 126/262/66 125/261/66
f 127/264/66 128/263/66 125/261/66
f 121/267/67 122/266/67 125/265/67
f 126/268/67 121/267/67 125/265/67
f 124/271/68 123/270/68 128/269/68
f 127/272/68 124/271/68 128/269/68
o solar_panel_east_base
v 1.4375 1.375 1.4375
v 1.4375 1.375 -1.4375
v 1.4375 1.3125 1.4375
v 1.4375 1.3125 -1.4375
v 0.4375 1.375 -1.4375
v 0.4375 1.375 1.4375
v 0.4375 1.3125 -1.4375
v 0.4375 1.3125 1.4375
vt 0.296875 0.984375
vt 0.546875 0.984375
vt 0.546875 0.96875
vt 0.296875 0.96875
vt 0.296875 0.265625
vt 0.296875 0.984375
vt 0.3125 0.984375
vt 0.3125 0.265625
vt 0.296875 0.28125
vt 0.546875 0.28125
vt 0.546875 0.265625
vt 0.296875 0.265625
vt 0.53125 0.265625
vt 0.53125 0.984375
vt 0.546875 0.984375
vt 0.546875 0.265625
vt 0.546875 0.265625
vt 0.296875 0.265625
vt 0.296875 0.984375
vt 0.546875 0.984375
vn 0 0 -1
vn 1 0 0
vn 0 0 1
vn -1 0 0
vn 0 -1 0
usemtl m_3fc594a4-16f5-05aa-aade-61647d111d2b
f 135/275/69 133/274/69 130/273/69
f 132/276/69 135/275/69 130/273/69
f 132/279/70 130/278/70 129/277/70
f 131/280/70 132/279/70 129/277/70
f 131/283/71 129/282/71 134/281/71
f 136/284/71 131/283/71 134/281/71
f 136/287/72 134/286/72 133/285/72
f 135/288/72 136/287/72 133/285/72
f 132/291/73 131/290/73 136/289/73
f 135/292/73 132/291/73 136/289/73
o solar_panel_east_arm
v 1.25 1.3125 0.0625
v 1.25 1.3125 -0.0625
v 1.25 1.1875 0.0625
v 1.25 1.1875 -0.0625
v 0.25 1.3125 -0.0625
v 0.25 1.3125 0.0625
v 0.25 1.1875 -0.0625
v 0.25 1.1875 0.0625
vt 1 0.59375
vt 1 0.34375
vt 0.96875 0.34375
vt 0.96875 0.59375
vt 1 0.625
vt 1 0.59375
vt 0.96875 0.59375
vt 0.96875 0.625
vt 0.96875 0.34375
vt 0.96875 0.59375
vt 1 0.59375
vt 1 0.34375
vt 0.96875 0.34375
vt 0.96875 0.59375
vt 1 0.59375
vt 1 0.34375
vt 0.96875 0.34375
vt 0.96875 0.59375
vt 1 0.59375
vt 1 0.34375
vn 0 0 -1
vn 1 0 0
vn 0 0 1
vn 0 1 0
vn 0 -1 0
usemtl m_3fc594a4-16f5-05aa-aade-61647d111d2b
f 143/295/74 141/294/74 138/293/74
f 140/296/74 143/295/74 138/293/74
f 140/299/75 138/298/75 137/297/75
f 139/300/75 140/299/75 137/297/75
f 139/303/76 137/302/76 142/301/76
f 144/304/76 139/303/76 142/301/76
f 137/307/77 138/306/77 141/305/77
f 142/308/77 137/307/77 141/305/77
f 140/311/78 139/310/78 144/309/78
f 143/312/78 140/311/78 144/309/78
o solar_panel_west
v -0.375 1.4375 1.5
v -0.375 1.4375 -1.5
v -0.375 1.375 1.5
v -0.375 1.375 -1.5
v -1.5 1.4375 -1.5
v -1.5 1.4375 1.5
v -1.5 1.375 -1.5
v -1.5 1.375 1.5
vt 0 0.265625
vt 0.28125 0.265625
vt 0.28125 0.25
vt 0 0.25
vt 0 0.25
vt 0 1
vt 0.015625 1
vt 0.015625 0.25
vt 0 1
vt 0.28125 1
vt 0.28125 0.984375
vt 0 0.984375
vt 0.265625 0.25
vt 0.265625 1
vt 0.28125 1
vt 0.28125 0.25
vt 0 1
vt 0.28125 1
vt 0.28125 0.25
vt 0 0.25
vt 0.28125 1
vt 0.5625 1
vt 0.5625 0.25
vt 0.28125 0.25
vn 0 0 -1
vn 1 0 0
vn 0 0 1
vn -1 0 0
vn 0 1 0
vn 0 -1 0
usemtl m_3fc594a4-16f5-05aa-aade-61647d111d2b
f 151/315/79 149/314/79 146/313/79
f 148/316/79 151/315/79 146/313/79
f 148/319/80 146/318/80 145/317/80
f 147/320/80 148/319/80 145/317/80
f 147/323/81 145/322/81 150/321/81
f 152/324/81 147/323/81 150/321/81
f 152/327/82 150/326/82 149/325/82
f 151/328/82 152/327/82 149/325/82
f 145/331/83 146/330/83 149/329/83
f 150/332/83 145/331/83 149/329/83
f 148/335/84 147/334/84 152/333/84
f 151/336/84 148/335/84 152/333/84
o solar_panel_west_base
v -0.4375 1.375 1.4375
v -0.4375 1.375 -1.4375
v -0.4375 1.3125 1.4375
v -0.4375 1.3125 -1.4375
v -1.4375 1.375 -1.4375
v -1.4375 1.375 1.4375
v -1.4375 1.3125 -1.4375
v -1.4375 1.3125 1.4375
vt 0.296875 0.28125
vt 0.546875 0.28125
vt 0.546875 0.265625
vt 0.296875 0.265625
vt 0.296875 0.265625
vt 0.296875 0.984375
vt 0.3125 0.984375
vt 0.3125 0.265625
vt 0.296875 0.984375
vt 0.546875 0.984375
vt 0.546875 0.96875
vt 0.296875 0.96875
vt 0.53125 0.265625
vt 0.53125 0.984375
vt 0.546875 0.984375
vt 0.546875 0.265625
vt 0.296875 0.984375
vt 0.546875 0.984375
vt 0.546875 0.265625
vt 0.296875 0.265625
vn 0 0 -1
vn 1 0 0
vn 0 0 1
vn -1 0 0
vn 0 -1 0
usemtl m_3fc594a4-16f5-05aa-aade-61647d111d2b
f 159/339/85 157/338/85 154/337/85
f 156/340/85 159/339/85 154/337/85
f 156/343/86 154/342/86 153/341/86
f 155/344/86 156/343/86 153/341/86
f 155/347/87 153/346/87 158/345/87
f 160/348/87 155/347/87 158/345/87
f 160/351/88 158/350/88 157/349/88
f 159/352/88 160/351/88 157/349/88
f 156/355/89 155/354/89 160/353/89
f 159/356/89 156/355/89 160/353/89
o solar_panel_west_arm
v -0.25 1.3125 0.0625
v -0.25 1.3125 -0.0625
v -0.25 1.1875 0.0625
v -0.25 1.1875 -0.0625
v -1.25 1.3125 -0.0625
v -1.25 1.3125 0.0625
v -1.25 1.1875 -0.0625
v -1.25 1.1875 0.0625
vt 0.96875 0.34375
vt 0.96875 0.59375
vt 1 0.59375
vt 1 0.34375
vt 1 0.59375
vt 1 0.34375
vt 0.96875 0.34375
vt 0.96875 0.59375
vt 1 0.625
vt 1 0.59375
vt 0.96875 0.59375
vt 0.96875 0.625
vt 1 0.59375
vt 1 0.34375
vt 0.96875 0.34375
vt 0.96875 0.59375
vt 1 0.59375
vt 1 0.34375
vt 0.96875 0.34375
vt 0.96875 0.59375
vn 0 0 -1
vn 0 0 1
vn -1 0 0
vn 0 1 0
vn 0 -1 0
usemtl m_3fc594a4-16f5-05aa-aade-61647d111d2b
f 167/359/90 165/358/90 162/357/90
f 164/360/90 167/359/90 162/357/90
f 163/363/91 161/362/91 166/361/91
f 168/364/91 163/363/91 166/361/91
f 168/367/92 166/366/92 165/365/92
f 167/368/92 168/367/92 165/365/92
f 161/371/93 162/370/93 165/369/93
f 166/372/93 161/371/93 165/369/93
f 164/375/94 163/374/94 168/373/94
f 167/376/94 164/375/94 168/373/94