# Made in Blockbench 4.9.4
mtllib pressurized_reaction_chamber.mtl

o body
v 0.5 0.5 0.5
v 0.5 0.5 -0.125
v 0.5 -0.25 0.5
v 0.5 -0.25 -0.125
v -0.5 0.5 -0.125
v -0.5 0.5 0.5
v -0.5 -0.25 -0.125
v -0.5 -0.25 0.5
vt 0 0.5625
vt 0.5 0.5625
vt 0.5 0.1875
vt 0 0.1875
vt 0.6875 0.875
vt 1 0.875
vt 1 0.5
vt 0.6875 0.5
vt 0 0.5
vt 0.5 0.5
vt 0.5 0.125
vt 0 0.125
vt 0.6875 0.875
vt 1 0.875
vt 1 0.5
vt 0.6875 0.5
vt 0 0.6875
vt 0.5 0.6875
vt 0.5 1
vt 0 1
vn 0 0 -1
vn 1 0 0
vn 0 0 1
vn -1 0 0
vn 0 1 0
usemtl m_823f4d9d-e5e5-80e7-c0a4-5574117ab948
f 7/3/1 5/2/1 2/1/1
f 4/4/1 7/3/1 2/1/1
usemtl m_10d4f782-95be-fd0a-6bc5-0bcf0b35bddf
f 4/7/2 2/6/2 1/5/2
f 3/8/2 4/7/2 1/5/2
f 3/11/3 1/10/3 6/9/3
f 8/12/3 3/11/3 6/9/3
f 8/15/4 6/14/4 5/13/4
f 7/16/4 8/15/4 5/13/4
f 1/19/5 2/18/5 5/17/5
f 6/20/5 1/19/5 5/17/5
o front_div_1
v 0.25 0.4375 -0.125
v 0.25 0.4375 -0.4375
v 0.25 -0.25 -0.125
v 0.25 -0.25 -0.4375
v 0.125 0.4375 -0.4375
v 0.125 0.4375 -0.125
v 0.125 -0.25 -0.4375
v 0.125 -0.25 -0.125
vt 0.1875 0.90625
vt 0.25 0.90625
vt 0.25 0.5625
vt 0.1875 0.5625
vt 0.40625 0.90625
vt 0.25 0.90625
vt 0.25 0.5625
vt 0.40625 0.5625
vt 0 0.90625
vt 0.15625 0.90625
vt 0.15625 0.5625
vt 0 0.5625
vt 0.4375 0.96875
vt 0.4375 0.90625
vt 0.28125 0.90625
vt 0.28125 0.96875
vn 0 0 -1
vn 1 0 0
vn -1 0 0
vn 0 1 0
usemtl m_823f4d9d-e5e5-80e7-c0a4-5574117ab948
f 15/23/6 13/22/6 10/21/6
f 12/24/6 15/23/6 10/21/6
f 12/27/7 10/26/7 9/25/7
f 11/28/7 12/27/7 9/25/7
f 16/31/8 14/30/8 13/29/8
f 15/32/8 16/31/8 13/29/8
f 9/35/9 10/34/9 13/33/9
f 14/36/9 9/35/9 13/33/9
o front_div_2
v 0.4375 0.4375 -0.125
v 0.4375 0.4375 -0.4375
v 0.4375 -0.25 -0.125
v 0.4375 -0.25 -0.4375
v 0.3125 0.4375 -0.4375
v 0.3125 0.4375 -0.125
v 0.3125 -0.25 -0.4375
v 0.3125 -0.25 -0.125
vt 0.1875 0.90625
vt 0.25 0.90625
vt 0.25 0.5625
vt 0.1875 0.5625
vt 0.03125 0.90625
vt 0.1875 0.90625
vt 0.1875 0.5625
vt 0.03125 0.5625
vt 0.25 0.90625
vt 0.40625 0.90625
vt 0.40625 0.5625
vt 0.25 0.5625
vt 0.4375 0.96875
vt 0.4375 0.90625
vt 0.28125 0.90625
vt 0.28125 0.96875
vn 0 0 -1
vn 1 0 0
vn -1 0 0
vn 0 1 0
usemtl m_823f4d9d-e5e5-80e7-c0a4-5574117ab948
f 23/39/10 21/38/10 18/37/10
f 20/40/10 23/39/10 18/37/10
f 20/43/11 18/42/11 17/41/11
f 19/44/11 20/43/11 17/41/11
f 24/47/12 22/46/12 21/45/12
f 23/48/12 24/47/12 21/45/12
f 17/51/13 18/50/13 21/49/13
f 22/52/13 17/51/13 21/49/13
o front
v 0.125 0.375 -0.125
v 0.125 0.375 -0.375
v 0.125 -0.25 -0.125
v 0.125 -0.25 -0.375
v -0.4375 0.375 -0.375
v -0.4375 0.375 -0.125
v -0.4375 -0.25 -0.375
v -0.4375 -0.25 -0.125
vt 0.4375 0.875
vt 0.71875 0.875
vt 0.71875 0.5625
vt 0.4375 0.5625
vt 0.71875 0.875
vt 0.84375 0.875
vt 0.84375 0.5625
vt 0.71875 0.5625
vt 0.4375 0.875
vt 0.71875 0.875
vt 0.71875 1
vt 0.4375 1
vn 0 0 -1
vn -1 0 0
vn 0 1 0
usemtl m_823f4d9d-e5e5-80e7-c0a4-5574117ab948
f 31/55/14 29/54/14 26/53/14
f 28/56/14 31/55/14 26/53/14
f 32/59/15 30/58/15 29/57/15
f 31/60/15 32/59/15 29/57/15
f 25/63/16 26/62/16 29/61/16
f 30/64/16 25/63/16 29/61/16
o base
v 0.5 -0.25 0.5
v 0.5 -0.25 -0.5
v 0.5 -0.5 0.5
v 0.5 -0.5 -0.5
v -0.5 -0.25 -0.5
v -0.5 -0.25 0.5
v -0.5 -0.5 -0.5
v -0.5 -0.5 0.5
vt 0 0.125
vt 0.5 0.125
vt 0.5 0
vt 0 0
vt 0 0.125
vt 0.5 0.125
vt 0.5 0
vt 0 0
vt 0 0.125
vt 0.5 0.125
vt 0.5 0
vt 0 0
vt 0 0.125
vt 0.5 0.125
vt 0.5 0
vt 0 0
vt 0 0.5
vt 0.5 0.5
vt 0.5 1
vt 0 1
vt 0.5 0.5
vt 1 0.5
vt 1 0
vt 0.5 0
vn 0 0 -1
vn 1 0 0
vn 0 0 1
vn -1 0 0
vn 0 1 0
vn 0 -1 0
usemtl m_10d4f782-95be-fd0a-6bc5-0bcf0b35bddf
f 39/67/17 37/66/17 34/65/17
f 36/68/17 39/67/17 34/65/17
f 36/71/18 34/70/18 33/69/18
f 35/72/18 36/71/18 33/69/18
f 35/75/19 33/74/19 38/73/19
f 40/76/19 35/75/19 38/73/19
f 40/79/20 38/78/20 37/77/20
f 39/80/20 40/79/20 37/77/20
f 33/83/21 34/82/21 37/81/21
f 38/84/21 33/83/21 37/81/21
f 36/87/22 35/86/22 40/85/22
f 39/88/22 36/87/22 40/85/22
o bar1
v 0.3125 0.375 -0.125
v 0.3125 0.375 -0.375
v 0.3125 0.3125 -0.125
v 0.3125 0.3125 -0.375
v 0.25 0.375 -0.375
v 0.25 0.375 -0.125
v 0.25 0.3125 -0.375
v 0.25 0.3125 -0.125
vt 0.5 0.84375
vt 0.53125 0.84375
vt 0.53125 0.8125
vt 0.5 0.8125
vt 0.5 0.8125
vt 0.5 0.84375
vt 0.625 0.84375
vt 0.625 0.8125
vt 0.5625 0.84375
vt 0.5625 0.875
vt 0.6875 0.875
vt 0.6875 0.84375
vn 0 0 -1
vn 0 1 0
vn 0 -1 0
usemtl m_10d4f782-95be-fd0a-6bc5-0bcf0b35bddf
f 47/91/23 45/90/23 42/89/23
f 44/92/23 47/91/23 42/89/23
f 41/95/24 42/94/24 45/93/24
f 46/96/24 41/95/24 45/93/24
f 44/99/25 43/98/25 48/97/25
f 47/100/25 44/99/25 48/97/25
o bar2
v 0.3125 0.25 -0.125
v 0.3125 0.25 -0.375
v 0.3125 0.1875 -0.125
v 0.3125 0.1875 -0.375
v 0.25 0.25 -0.375
v 0.25 0.25 -0.125
v 0.25 0.1875 -0.375
v 0.25 0.1875 -0.125
vt 0.5 0.84375
vt 0.53125 0.84375
vt 0.53125 0.8125
vt 0.5 0.8125
vt 0.5625 0.78125
vt 0.5625 0.8125
vt 0.6875 0.8125
vt 0.6875 0.78125
vt 0.5625 0.84375
vt 0.5625 0.875
vt 0.6875 0.875
vt 0.6875 0.84375
vn 0 0 -1
vn 0 1 0
vn 0 -1 0
usemtl m_10d4f782-95be-fd0a-6bc5-0bcf0b35bddf
f 55/103/26 53/102/26 50/101/26
f 52/104/26 55/103/26 50/101/26
f 49/107/27 50/106/27 53/105/27
f 54/108/27 49/107/27 53/105/27
f 52/111/28 51/110/28 56/109/28
f 55/112/28 52/111/28 56/109/28
o bar3
v 0.3125 0.125 -0.125
v 0.3125 0.125 -0.375
v 0.3125 0.0625 -0.125
v 0.3125 0.0625 -0.375
v 0.25 0.125 -0.375
v 0.25 0.125 -0.125
v 0.25 0.0625 -0.375
v 0.25 0.0625 -0.125
vt 0.5 0.84375
vt 0.53125 0.84375
vt 0.53125 0.8125
vt 0.5 0.8125
vt 0.5625 0.78125
vt 0.5625 0.8125
vt 0.6875 0.8125
vt 0.6875 0.78125
vt 0.5625 0.84375
vt 0.5625 0.875
vt 0.6875 0.875
vt 0.6875 0.84375
vn 0 0 -1
vn 0 1 0
vn 0 -1 0
usemtl m_10d4f782-95be-fd0a-6bc5-0bcf0b35bddf
f 63/115/29 61/114/29 58/113/29
f 60/116/29 63/115/29 58/113/29
f 57/119/30 58/118/30 61/117/30
f 62/120/30 57/119/30 61/117/30
f 60/123/31 59/122/31 64/121/31
f 63/124/31 60/123/31 64/121/31
o bar4
v 0.3125 0 -0.125
v 0.3125 0 -0.375
v 0.3125 -0.0625 -0.125
v 0.3125 -0.0625 -0.375
v 0.25 0 -0.375
v 0.25 0 -0.125
v 0.25 -0.0625 -0.375
v 0.25 -0.0625 -0.125
vt 0.5 0.84375
vt 0.53125 0.84375
vt 0.53125 0.8125
vt 0.5 0.8125
vt 0.5625 0.78125
vt 0.5625 0.8125
vt 0.6875 0.8125
vt 0.6875 0.78125
vt 0.5625 0.84375
vt 0.5625 0.875
vt 0.6875 0.875
vt 0.6875 0.84375
vn 0 0 -1
vn 0 1 0
vn 0 -1 0
usemtl m_10d4f782-95be-fd0a-6bc5-0bcf0b35bddf
f 71/127/32 69/126/32 66/125/32
f 68/128/32 71/127/32 66/125/32
f 65/131/33 66/130/33 69/129/33
f 70/132/33 65/131/33 69/129/33
f 68/135/34 67/134/34 72/133/34
f 71/136/34 68/135/34 72/133/34
o bar5
v 0.3125 -0.125 -0.125
v 0.3125 -0.125 -0.375
v 0.3125 -0.1875 -0.125
v 0.3125 -0.1875 -0.375
v 0.25 -0.125 -0.375
v 0.25 -0.125 -0.125
v 0.25 -0.1875 -0.375
v 0.25 -0.1875 -0.125
vt 0.5 0.84375
vt 0.53125 0.84375
vt 0.53125 0.8125
vt 0.5 0.8125
vt 0.5625 0.78125
vt 0.5625 0.8125
vt 0.6875 0.8125
vt 0.6875 0.78125
vt 0.5625 0.84375
vt 0.5625 0.875
vt 0.6875 0.875
vt 0.6875 0.84375
vn 0 0 -1
vn 0 1 0
vn 0 -1 0
usemtl m_10d4f782-95be-fd0a-6bc5-0bcf0b35bddf
f 79/139/35 77/138/35 74/137/35
f 76/140/35 79/139/35 74/137/35
f 73/143/36 74/142/36 77/141/36
f 78/144/36 73/143/36 77/141/36
f 76/147/37 75/146/37 80/145/37
f 79/148/37 76/147/37 80/145/37