mtllib ./Project02.mtl
g SubMesh_0
v 0.2985451 0.7219049 0.4295039
v 0.2985451 0.6719048 0.4295039
v 0.299255 0.7219049 0.0295046
v 0.299255 0.6719048 0.0295046
v 0.09854585 0.7219049 0.429149
v 0.2985451 0.7219049 0.4295039
v 0.09925544 0.7219049 0.02914965
v 0.299255 0.7219049 0.0295046
v 0.09854585 0.6719048 0.429149
v 0.09854585 0.7219049 0.429149
v 0.09925544 0.6719048 0.02914965
v 0.09925544 0.7219049 0.02914965
v 0.2985451 0.6719048 0.4295039
v 0.09854585 0.6719048 0.429149
v 0.299255 0.6719048 0.0295046
v 0.09925544 0.6719048 0.02914965
v 0.299255 0.7219049 0.0295046
v 0.299255 0.6719048 0.0295046
v 0.09925544 0.7219049 0.02914965
v 0.09925544 0.6719048 0.02914965
v 0.09854585 0.7219049 0.429149
v 0.09854585 0.6719048 0.429149
v 0.2985451 0.7219049 0.4295039
v 0.2985451 0.6719048 0.4295039
v 0.2531475 0.7195671 0.3043935
v 0.2531475 0.5195671 0.3043935
v 0.2533248 0.7195671 0.2043936
v 0.2533248 0.5195671 0.2043936
v 0.1531482 0.7195671 0.3042158
v 0.2531475 0.7195671 0.3043935
v 0.1533255 0.7195671 0.2042159
v 0.2533248 0.7195671 0.2043936
v 0.1531482 0.5195671 0.3042158
v 0.1531482 0.7195671 0.3042158
v 0.1533255 0.5195671 0.2042159
v 0.1533255 0.7195671 0.2042159
v 0.2531475 0.5195671 0.3043935
v 0.1531482 0.5195671 0.3042158
v 0.2533248 0.5195671 0.2043936
v 0.1533255 0.5195671 0.2042159
v 0.2533248 0.7195671 0.2043936
v 0.2533248 0.5195671 0.2043936
v 0.1533255 0.7195671 0.2042159
v 0.1533255 0.5195671 0.2042159
v 0.1531482 0.7195671 0.3042158
v 0.1531482 0.5195671 0.3042158
v 0.2531475 0.7195671 0.3043935
v 0.2531475 0.5195671 0.3043935

vn 0.9999984 0 0.001774669
vn 0.9999984 0 0.001774669
vn 0.9999984 0 0.001774669
vn 0.9999984 0 0.001774669
vn 0 1 0
vn 0 1 0
vn 0 1 0
vn 0 1 0
vn -0.9999984 0 -0.001774669
vn -0.9999984 0 -0.001774669
vn -0.9999984 0 -0.001774669
vn -0.9999984 0 -0.001774669
vn 0 -1 0
vn 0 -1 0
vn 0 -1 0
vn 0 -1 0
vn 0.001774669 0 -0.9999984
vn 0.001774669 0 -0.9999984
vn 0.001774669 0 -0.9999984
vn 0.001774669 0 -0.9999984
vn -0.001774669 0 0.9999984
vn -0.001774669 0 0.9999984
vn -0.001774669 0 0.9999984
vn -0.001774669 0 0.9999984
vn 0.9999984 0 0.001774669
vn 0.9999984 0 0.001774669
vn 0.9999984 0 0.001774669
vn 0.9999984 0 0.001774669
vn 0 1 0
vn 0 1 0
vn 0 1 0
vn 0 1 0
vn -0.9999984 0 -0.001774669
vn -0.9999984 0 -0.001774669
vn -0.9999984 0 -0.001774669
vn -0.9999984 0 -0.001774669
vn 0 -1 0
vn 0 -1 0
vn 0 -1 0
vn 0 -1 0
vn 0.001774669 0 -0.9999984
vn 0.001774669 0 -0.9999984
vn 0.001774669 0 -0.9999984
vn 0.001774669 0 -0.9999984
vn -0.001774669 0 0.9999984
vn -0.001774669 0 0.9999984
vn -0.001774669 0 0.9999984
vn -0.001774669 0 0.9999984

vt 0 1
vt 0 0
vt 1 1
vt 1 0
vt 0 1
vt 0 0
vt 1 1
vt 1 0
vt 0 1
vt 0 0
vt 1 1
vt 1 0
vt 0 1
vt 0 0
vt 1 1
vt 1 0
vt 0 1
vt 0 0
vt 1 1
vt 1 0
vt 0 1
vt 0 0
vt 1 1
vt 1 0
vt 0 1
vt 0 0
vt 1 1
vt 1 0
vt 0 1
vt 0 0
vt 1 1
vt 1 0
vt 0 1
vt 0 0
vt 1 1
vt 1 0
vt 0 1
vt 0 0
vt 1 1
vt 1 0
vt 0 1
vt 0 0
vt 1 1
vt 1 0
vt 0 1
vt 0 0
vt 1 1
vt 1 0

usemtl Standard(Clone)
usemap Standard(Clone)
f 2/2/2 3/3/3 1/1/1
f 4/4/4 3/3/3 2/2/2
f 6/6/6 7/7/7 5/5/5
f 8/8/8 7/7/7 6/6/6
f 10/10/10 11/11/11 9/9/9
f 12/12/12 11/11/11 10/10/10
f 14/14/14 15/15/15 13/13/13
f 16/16/16 15/15/15 14/14/14
f 18/18/18 19/19/19 17/17/17
f 20/20/20 19/19/19 18/18/18
f 22/22/22 23/23/23 21/21/21
f 24/24/24 23/23/23 22/22/22
f 26/26/26 27/27/27 25/25/25
f 28/28/28 27/27/27 26/26/26
f 30/30/30 31/31/31 29/29/29
f 32/32/32 31/31/31 30/30/30
f 34/34/34 35/35/35 33/33/33
f 36/36/36 35/35/35 34/34/34
f 38/38/38 39/39/39 37/37/37
f 40/40/40 39/39/39 38/38/38
f 42/42/42 43/43/43 41/41/41
f 44/44/44 43/43/43 42/42/42
f 46/46/46 47/47/47 45/45/45
f 48/48/48 47/47/47 46/46/46
g SubMesh_0
v 0.8888647 0.5265392 0.2666375
v 0.8888647 0.02653921 0.2666375
v 0.889042 0.5265392 0.1666376
v 0.889042 0.02653921 0.1666376
v 0.08886546 0.5265392 0.2652177
v 0.8888647 0.5265392 0.2666375
v 0.08904308 0.5265392 0.1652181
v 0.889042 0.5265392 0.1666376
v 0.08886546 0.02653921 0.2652177
v 0.08886546 0.5265392 0.2652177
v 0.08904308 0.02653921 0.1652181
v 0.08904308 0.5265392 0.1652181
v 0.8888647 0.02653921 0.2666375
v 0.08886546 0.02653921 0.2652177
v 0.889042 0.02653921 0.1666376
v 0.08904308 0.02653921 0.1652181
v 0.889042 0.5265392 0.1666376
v 0.889042 0.02653921 0.1666376
v 0.08904308 0.5265392 0.1652181
v 0.08904308 0.02653921 0.1652181
v 0.08886546 0.5265392 0.2652177
v 0.08886546 0.02653921 0.2652177
v 0.8888647 0.5265392 0.2666375
v 0.8888647 0.02653921 0.2666375

vn 0.9999984 0 0.001774669
vn 0.9999984 0 0.001774669
vn 0.9999984 0 0.001774669
vn 0.9999984 0 0.001774669
vn 0 1 0
vn 0 1 0
vn 0 1 0
vn 0 1 0
vn -0.9999984 0 -0.001774669
vn -0.9999984 0 -0.001774669
vn -0.9999984 0 -0.001774669
vn -0.9999984 0 -0.001774669
vn 0 -1 0
vn 0 -1 0
vn 0 -1 0
vn 0 -1 0
vn 0.001774669 0 -0.9999984
vn 0.001774669 0 -0.9999984
vn 0.001774669 0 -0.9999984
vn 0.001774669 0 -0.9999984
vn -0.001774669 0 0.9999984
vn -0.001774669 0 0.9999984
vn -0.001774669 0 0.9999984
vn -0.001774669 0 0.9999984

vt 0 1
vt 0 0
vt 1 1
vt 1 0
vt 0 1
vt 0 0
vt 1 1
vt 1 0
vt 0 1
vt 0 0
vt 1 1
vt 1 0
vt 0 1
vt 0 0
vt 1 1
vt 1 0
vt 0 1
vt 0 0
vt 1 1
vt 1 0
vt 0 1
vt 0 0
vt 1 1
vt 1 0

usemtl Standard(Clone)
usemap Standard(Clone)
f 50/50/50 51/51/51 49/49/49
f 52/52/52 51/51/51 50/50/50
f 54/54/54 55/55/55 53/53/53
f 56/56/56 55/55/55 54/54/54
f 58/58/58 59/59/59 57/57/57
f 60/60/60 59/59/59 58/58/58
f 62/62/62 63/63/63 61/61/61
f 64/64/64 63/63/63 62/62/62
f 66/66/66 67/67/67 65/65/65
f 68/68/68 67/67/67 66/66/66
f 70/70/70 71/71/71 69/69/69
f 72/72/72 71/71/71 70/70/70
g SubMesh_0
v 1.007583 0.789341 0.07674396
v 1.007583 0.5393408 0.07674396
v 1.00776 0.789341 -0.02325594
v 1.00776 0.5393408 -0.02325594
v 0.007582605 0.789341 0.07496923
v 1.007583 0.789341 0.07674396
v 0.007759929 0.789341 -0.02503067
v 1.00776 0.789341 -0.02325594
v 0.007582605 0.5393408 0.07496923
v 0.007582605 0.789341 0.07496923
v 0.007759929 0.5393408 -0.02503067
v 0.007759929 0.789341 -0.02503067
v 1.007583 0.5393408 0.07674396
v 0.007582605 0.5393408 0.07496923
v 1.00776 0.5393408 -0.02325594
v 0.007759929 0.5393408 -0.02503067
v 1.00776 0.789341 -0.02325594
v 1.00776 0.5393408 -0.02325594
v 0.007759929 0.789341 -0.02503067
v 0.007759929 0.5393408 -0.02503067
v 0.007582605 0.789341 0.07496923
v 0.007582605 0.5393408 0.07496923
v 1.007583 0.789341 0.07674396
v 1.007583 0.5393408 0.07674396

vn 0.9999984 0 0.001774669
vn 0.9999984 0 0.001774669
vn 0.9999984 0 0.001774669
vn 0.9999984 0 0.001774669
vn 0 1 0
vn 0 1 0
vn 0 1 0
vn 0 1 0
vn -0.9999984 0 -0.001774669
vn -0.9999984 0 -0.001774669
vn -0.9999984 0 -0.001774669
vn -0.9999984 0 -0.001774669
vn 0 -1 0
vn 0 -1 0
vn 0 -1 0
vn 0 -1 0
vn 0.001774669 0 -0.9999984
vn 0.001774669 0 -0.9999984
vn 0.001774669 0 -0.9999984
vn 0.001774669 0 -0.9999984
vn -0.001774669 0 0.9999984
vn -0.001774669 0 0.9999984
vn -0.001774669 0 0.9999984
vn -0.001774669 0 0.9999984

vt 0 1
vt 0 0
vt 1 1
vt 1 0
vt 0 1
vt 0 0
vt 1 1
vt 1 0
vt 0 1
vt 0 0
vt 1 1
vt 1 0
vt 0 1
vt 0 0
vt 1 1
vt 1 0
vt 0 1
vt 0 0
vt 1 1
vt 1 0
vt 0 1
vt 0 0
vt 1 1
vt 1 0

usemtl Standard(Clone)
usemap Standard(Clone)
f 74/74/74 75/75/75 73/73/73
f 76/76/76 75/75/75 74/74/74
f 78/78/78 79/79/79 77/77/77
f 80/80/80 79/79/79 78/78/78
f 82/82/82 83/83/83 81/81/81
f 84/84/84 83/83/83 82/82/82
f 86/86/86 87/87/87 85/85/85
f 88/88/88 87/87/87 86/86/86
f 90/90/90 91/91/91 89/89/89
f 92/92/92 91/91/91 90/90/90
f 94/94/94 95/95/95 93/93/93
f 96/96/96 95/95/95 94/94/94
g SubMesh_0
v 1.006706 0.5450179 0.9880757
v 1.006706 0.4450179 0.9880757
v 1.00848 0.5450179 -0.01192272
v 1.00848 0.4450179 -0.01192272
v 0.006702244 0.5450179 0.9863014
v 1.006706 0.5450179 0.9880757
v 0.008477271 0.5450179 -0.01369715
v 1.00848 0.5450179 -0.01192272
v 0.006702244 0.4450179 0.9863014
v 0.006702244 0.5450179 0.9863014
v 0.008477271 0.4450179 -0.01369715
v 0.008477271 0.5450179 -0.01369715
v 1.006706 0.4450179 0.9880757
v 0.006702244 0.4450179 0.9863014
v 1.00848 0.4450179 -0.01192272
v 0.008477271 0.4450179 -0.01369715
v 1.00848 0.5450179 -0.01192272
v 1.00848 0.4450179 -0.01192272
v 0.008477271 0.5450179 -0.01369715
v 0.008477271 0.4450179 -0.01369715
v 0.006702244 0.5450179 0.9863014
v 0.006702244 0.4450179 0.9863014
v 1.006706 0.5450179 0.9880757
v 1.006706 0.4450179 0.9880757
v 0.8427379 0.5253854 0.8457032
v 0.8425233 0.04023753 0.966664
v 0.8427396 0.5011932 0.7486734
v 0.8425248 0.01604537 0.8696342
v 0.7427377 0.5254256 0.8456868
v 0.8427379 0.5253854 0.8457032
v 0.7427397 0.5012335 0.7486573
v 0.8427396 0.5011932 0.7486734
v 0.7425228 0.04027773 0.9666476
v 0.7427377 0.5254256 0.8456868
v 0.7425252 0.01608558 0.8696181
v 0.7427397 0.5012335 0.7486573
v 0.8425233 0.04023753 0.966664
v 0.7425228 0.04027773 0.9666476
v 0.8425248 0.01604537 0.8696342
v 0.7425252 0.01608558 0.8696181
v 0.8427396 0.5011932 0.7486734
v 0.8425248 0.01604537 0.8696342
v 0.7427397 0.5012335 0.7486573
v 0.7425252 0.01608558 0.8696181
v 0.7427377 0.5254256 0.8456868
v 0.7425228 0.04027773 0.9666476
v 0.8427379 0.5253854 0.8457032
v 0.8425233 0.04023753 0.966664

vn 0.9999984 0 0.001774669
vn 0.9999984 0 0.001774669
vn 0.9999984 0 0.001774669
vn 0.9999984 0 0.001774669
vn 0 1 0
vn 0 1 0
vn 0 1 0
vn 0 1 0
vn -0.9999984 0 -0.001774669
vn -0.9999984 0 -0.001774669
vn -0.9999984 0 -0.001774669
vn -0.9999984 0 -0.001774669
vn 0 -1 0
vn 0 -1 0
vn 0 -1 0
vn 0 -1 0
vn 0.001774669 0 -0.9999984
vn 0.001774669 0 -0.9999984
vn 0.001774669 0 -0.9999984
vn 0.001774669 0 -0.9999984
vn -0.001774669 0 0.9999984
vn -0.001774669 0 0.9999984
vn -0.001774669 0 0.9999984
vn -0.001774669 0 0.9999984
vn 0.9999999 -0.000402163 0.0001635551
vn 0.9999999 -0.000402163 0.0001635551
vn 0.9999999 -0.000402163 0.0001635551
vn 0.9999999 -0.000402163 0.0001635551
vn 0.0004297997 0.9702957 -0.2419214
vn 0.0004297997 0.9702957 -0.2419214
vn 0.0004297997 0.9702957 -0.2419214
vn 0.0004297997 0.9702957 -0.2419214
vn -0.9999999 0.000402163 -0.0001635551
vn -0.9999999 0.000402163 -0.0001635551
vn -0.9999999 0.000402163 -0.0001635551
vn -0.9999999 0.000402163 -0.0001635551
vn -0.0004297997 -0.9702957 0.2419214
vn -0.0004297997 -0.9702957 0.2419214
vn -0.0004297997 -0.9702957 0.2419214
vn -0.0004297997 -0.9702957 0.2419214
vn 6.14879E-05 -0.2419215 -0.9702958
vn 6.14879E-05 -0.2419215 -0.9702958
vn 6.14879E-05 -0.2419215 -0.9702958
vn 6.14879E-05 -0.2419215 -0.9702958
vn -6.14879E-05 0.2419215 0.9702958
vn -6.14879E-05 0.2419215 0.9702958
vn -6.14879E-05 0.2419215 0.9702958
vn -6.14879E-05 0.2419215 0.9702958

vt 0 1
vt 0 0
vt 1 1
vt 1 0
vt 0 1
vt 0 0
vt 1 1
vt 1 0
vt 0 1
vt 0 0
vt 1 1
vt 1 0
vt 0 1
vt 0 0
vt 1 1
vt 1 0
vt 0 1
vt 0 0
vt 1 1
vt 1 0
vt 0 1
vt 0 0
vt 1 1
vt 1 0
vt 0 1
vt 0 0
vt 1 1
vt 1 0
vt 0 1
vt 0 0
vt 1 1
vt 1 0
vt 0 1
vt 0 0
vt 1 1
vt 1 0
vt 0 1
vt 0 0
vt 1 1
vt 1 0
vt 0 1
vt 0 0
vt 1 1
vt 1 0
vt 0 1
vt 0 0
vt 1 1
vt 1 0

usemtl Standard(Clone)
usemap Standard(Clone)
f 98/98/98 99/99/99 97/97/97
f 100/100/100 99/99/99 98/98/98
f 102/102/102 103/103/103 101/101/101
f 104/104/104 103/103/103 102/102/102
f 106/106/106 107/107/107 105/105/105
f 108/108/108 107/107/107 106/106/106
f 110/110/110 111/111/111 109/109/109
f 112/112/112 111/111/111 110/110/110
f 114/114/114 115/115/115 113/113/113
f 116/116/116 115/115/115 114/114/114
f 118/118/118 119/119/119 117/117/117
f 120/120/120 119/119/119 118/118/118
f 122/122/122 123/123/123 121/121/121
f 124/124/124 123/123/123 122/122/122
f 126/126/126 127/127/127 125/125/125
f 128/128/128 127/127/127 126/126/126
f 130/130/130 131/131/131 129/129/129
f 132/132/132 131/131/131 130/130/130
f 134/134/134 135/135/135 133/133/133
f 136/136/136 135/135/135 134/134/134
f 138/138/138 139/139/139 137/137/137
f 140/140/140 139/139/139 138/138/138
f 142/142/142 143/143/143 141/141/141
f 144/144/144 143/143/143 142/142/142
g SubMesh_0
v 0.3235546 0.5207223 0.8468291
v 0.32334 0.03557449 0.96779
v 0.3235671 0.4965302 0.7497996
v 0.3233522 0.01138233 0.8707604
v 0.2235547 0.5207625 0.8468128
v 0.3235546 0.5207223 0.8468291
v 0.2235672 0.4965704 0.7497832
v 0.3235671 0.4965302 0.7497996
v 0.2233401 0.0356147 0.9677737
v 0.2235547 0.5207625 0.8468128
v 0.2233526 0.01142254 0.870744
v 0.2235672 0.4965704 0.7497832
v 0.32334 0.03557449 0.96779
v 0.2233401 0.0356147 0.9677737
v 0.3233522 0.01138233 0.8707604
v 0.2233526 0.01142254 0.870744
v 0.3235671 0.4965302 0.7497996
v 0.3233522 0.01138233 0.8707604
v 0.2235672 0.4965704 0.7497832
v 0.2233526 0.01142254 0.870744
v 0.2235547 0.5207625 0.8468128
v 0.2233401 0.0356147 0.9677737
v 0.3235546 0.5207223 0.8468291
v 0.32334 0.03557449 0.96779

vn 0.9999999 -0.000402163 0.0001635551
vn 0.9999999 -0.000402163 0.0001635551
vn 0.9999999 -0.000402163 0.0001635551
vn 0.9999999 -0.000402163 0.0001635551
vn 0.0004297997 0.9702957 -0.2419214
vn 0.0004297997 0.9702957 -0.2419214
vn 0.0004297997 0.9702957 -0.2419214
vn 0.0004297997 0.9702957 -0.2419214
vn -0.9999999 0.000402163 -0.0001635551
vn -0.9999999 0.000402163 -0.0001635551
vn -0.9999999 0.000402163 -0.0001635551
vn -0.9999999 0.000402163 -0.0001635551
vn -0.0004297997 -0.9702957 0.2419214
vn -0.0004297997 -0.9702957 0.2419214
vn -0.0004297997 -0.9702957 0.2419214
vn -0.0004297997 -0.9702957 0.2419214
vn 6.14879E-05 -0.2419215 -0.9702958
vn 6.14879E-05 -0.2419215 -0.9702958
vn 6.14879E-05 -0.2419215 -0.9702958
vn 6.14879E-05 -0.2419215 -0.9702958
vn -6.14879E-05 0.2419215 0.9702958
vn -6.14879E-05 0.2419215 0.9702958
vn -6.14879E-05 0.2419215 0.9702958
vn -6.14879E-05 0.2419215 0.9702958

vt 0 1
vt 0 0
vt 1 1
vt 1 0
vt 0 1
vt 0 0
vt 1 1
vt 1 0
vt 0 1
vt 0 0
vt 1 1
vt 1 0
vt 0 1
vt 0 0
vt 1 1
vt 1 0
vt 0 1
vt 0 0
vt 1 1
vt 1 0
vt 0 1
vt 0 0
vt 1 1
vt 1 0

usemtl Standard(Clone)
usemap Standard(Clone)
f 146/146/146 147/147/147 145/145/145
f 148/148/148 147/147/147 146/146/146
f 150/150/150 151/151/151 149/149/149
f 152/152/152 151/151/151 150/150/150
f 154/154/154 155/155/155 153/153/153
f 156/156/156 155/155/155 154/154/154
f 158/158/158 159/159/159 157/157/157
f 160/160/160 159/159/159 158/158/158
f 162/162/162 163/163/163 161/161/161
f 164/164/164 163/163/163 162/162/162
f 166/166/166 167/167/167 165/165/165
f 168/168/168 167/167/167 166/166/166
g SubMesh_0
v 0.2369303 0.769196 0.3763428
v 0.2368996 0.6691793 0.3763428
v 0.2369496 0.769196 0.3144392
v 0.2369094 0.6691793 0.3144392
v 0.1757196 0.7692174 0.3763303
v 0.2369303 0.769196 0.3763428
v 0.1757398 0.7692174 0.314427
v 0.2369496 0.769196 0.3144392
v 0.1756901 0.6692007 0.3763303
v 0.1757196 0.7692174 0.3763303
v 0.1756999 0.6692007 0.314427
v 0.1757398 0.7692174 0.314427
v 0.2368996 0.6691793 0.3763428
v 0.1756901 0.6692007 0.3763303
v 0.2369094 0.6691793 0.3144392
v 0.1756999 0.6692007 0.314427
v 0.2369496 0.769196 0.3144392
v 0.2369094 0.6691793 0.3144392
v 0.1757398 0.7692174 0.314427
v 0.1756999 0.6692007 0.314427
v 0.1757196 0.7692174 0.3763303
v 0.1756901 0.6692007 0.3763303
v 0.2369303 0.769196 0.3763428
v 0.2368996 0.6691793 0.3763428

vn 0.9999999 -0.0003490658 0.0002038479
vn 0.9999999 -0.0003490658 0.0002038479
vn 0.9999999 -0.0003490658 0.0002038479
vn 0.9999999 -0.0003490658 0.0002038479
vn 0.0003490658 0.9999999 7.115887E-08
vn 0.0003490658 0.9999999 7.115887E-08
vn 0.0003490658 0.9999999 7.115887E-08
vn 0.0003490658 0.9999999 7.115887E-08
vn -0.9999999 0.0003490658 -0.0002038479
vn -0.9999999 0.0003490658 -0.0002038479
vn -0.9999999 0.0003490658 -0.0002038479
vn -0.9999999 0.0003490658 -0.0002038479
vn -0.0003490658 -0.9999999 -7.115887E-08
vn -0.0003490658 -0.9999999 -7.115887E-08
vn -0.0003490658 -0.9999999 -7.115887E-08
vn -0.0003490658 -0.9999999 -7.115887E-08
vn 0.0002038752 -2.842171E-14 -0.9999998
vn 0.0002038752 -2.842171E-14 -0.9999998
vn 0.0002038752 -2.842171E-14 -0.9999998
vn 0.0002038752 -2.842171E-14 -0.9999998
vn -0.0002038752 2.842171E-14 0.9999998
vn -0.0002038752 2.842171E-14 0.9999998
vn -0.0002038752 2.842171E-14 0.9999998
vn -0.0002038752 2.842171E-14 0.9999998

vt 0 1
vt 0 0
vt 1 1
vt 1 0
vt 0 1
vt 0 0
vt 1 1
vt 1 0
vt 0 1
vt 0 0
vt 1 1
vt 1 0
vt 0 1
vt 0 0
vt 1 1
vt 1 0
vt 0 1
vt 0 0
vt 1 1
vt 1 0
vt 0 1
vt 0 0
vt 1 1
vt 1 0

usemtl Standard(Clone)
usemap Standard(Clone)
f 170/170/170 171/171/171 169/169/169
f 172/172/172 171/171/171 170/170/170
f 174/174/174 175/175/175 173/173/173
f 176/176/176 175/175/175 174/174/174
f 178/178/178 179/179/179 177/177/177
f 180/180/180 179/179/179 178/178/178
f 182/182/182 183/183/183 181/181/181
f 184/184/184 183/183/183 182/182/182
f 186/186/186 187/187/187 185/185/185
f 188/188/188 187/187/187 186/186/186
f 190/190/190 191/191/191 189/189/189
f 192/192/192 191/191/191 190/190/190
g SubMesh_0
v 0.43208 0.769196 0.2651238
v 0.4320496 0.6691793 0.2651238
v 0.4320991 0.769196 0.2032202
v 0.4320592 0.6691793 0.2032202
v 0.3708798 0.7692174 0.2651113
v 0.43208 0.769196 0.2651238
v 0.3708896 0.7692174 0.203208
v 0.4320991 0.769196 0.2032202
v 0.3708395 0.6692007 0.2651113
v 0.3708798 0.7692174 0.2651113
v 0.3708494 0.6692007 0.203208
v 0.3708896 0.7692174 0.203208
v 0.4320496 0.6691793 0.2651238
v 0.3708395 0.6692007 0.2651113
v 0.4320592 0.6691793 0.2032202
v 0.3708494 0.6692007 0.203208
v 0.4320991 0.769196 0.2032202
v 0.4320592 0.6691793 0.2032202
v 0.3708896 0.7692174 0.203208
v 0.3708494 0.6692007 0.203208
v 0.3708798 0.7692174 0.2651113
v 0.3708395 0.6692007 0.2651113
v 0.43208 0.769196 0.2651238
v 0.4320496 0.6691793 0.2651238

vn 0.9999999 -0.0003490658 0.0002038479
vn 0.9999999 -0.0003490658 0.0002038479
vn 0.9999999 -0.0003490658 0.0002038479
vn 0.9999999 -0.0003490658 0.0002038479
vn 0.0003490658 0.9999999 7.115887E-08
vn 0.0003490658 0.9999999 7.115887E-08
vn 0.0003490658 0.9999999 7.115887E-08
vn 0.0003490658 0.9999999 7.115887E-08
vn -0.9999999 0.0003490658 -0.0002038479
vn -0.9999999 0.0003490658 -0.0002038479
vn -0.9999999 0.0003490658 -0.0002038479
vn -0.9999999 0.0003490658 -0.0002038479
vn -0.0003490658 -0.9999999 -7.115887E-08
vn -0.0003490658 -0.9999999 -7.115887E-08
vn -0.0003490658 -0.9999999 -7.115887E-08
vn -0.0003490658 -0.9999999 -7.115887E-08
vn 0.0002038752 -2.842171E-14 -0.9999998
vn 0.0002038752 -2.842171E-14 -0.9999998
vn 0.0002038752 -2.842171E-14 -0.9999998
vn 0.0002038752 -2.842171E-14 -0.9999998
vn -0.0002038752 2.842171E-14 0.9999998
vn -0.0002038752 2.842171E-14 0.9999998
vn -0.0002038752 2.842171E-14 0.9999998
vn -0.0002038752 2.842171E-14 0.9999998

vt 0 1
vt 0 0
vt 1 1
vt 1 0
vt 0 1
vt 0 0
vt 1 1
vt 1 0
vt 0 1
vt 0 0
vt 1 1
vt 1 0
vt 0 1
vt 0 0
vt 1 1
vt 1 0
vt 0 1
vt 0 0
vt 1 1
vt 1 0
vt 0 1
vt 0 0
vt 1 1
vt 1 0

usemtl Standard(Clone)
usemap Standard(Clone)
f 194/194/194 195/195/195 193/193/193
f 196/196/196 195/195/195 194/194/194
f 198/198/198 199/199/199 197/197/197
f 200/200/200 199/199/199 198/198/198
f 202/202/202 203/203/203 201/201/201
f 204/204/204 203/203/203 202/202/202
f 206/206/206 207/207/207 205/205/205
f 208/208/208 207/207/207 206/206/206
f 210/210/210 211/211/211 209/209/209
f 212/212/212 211/211/211 210/210/210
f 214/214/214 215/215/215 213/213/213
f 216/216/216 215/215/215 214/214/214
