# Blender v2.79 (sub 0) OBJ File: 'SynthesiserModel3.blend'
# www.blender.org
mtllib SynthesiserModel1.mtl
o synthesiser
v 0.250000 0.937500 0.750000
v 0.250000 0.937500 0.250000
v 0.750000 0.937500 0.250000
v 0.750000 0.937500 0.750000
v 0.250000 1.000000 0.750000
v 0.250000 1.000000 0.250000
v 0.750000 1.000000 0.250000
v 0.750000 1.000000 0.750000
v 0.062500 0.625000 0.625000
v 0.062500 0.625000 0.062500
v 0.125000 0.625000 0.062500
v 0.125000 0.625000 0.625000
v 0.062500 0.687500 0.625000
v 0.062500 0.687500 0.062500
v 0.125000 0.687500 0.062500
v 0.125000 0.687500 0.625000
v 0.125000 0.125000 0.312500
v 0.125000 0.125000 0.125000
v 0.312500 0.125000 0.125000
v 0.312500 0.125000 0.312500
v 0.125000 0.187500 0.312500
v 0.125000 0.187500 0.125000
v 0.312500 0.187500 0.125000
v 0.312500 0.187500 0.312500
v 0.406250 0.125000 0.312500
v 0.406250 0.125000 0.125000
v 0.593750 0.125000 0.125000
v 0.593750 0.125000 0.312500
v 0.406250 0.187500 0.312500
v 0.406250 0.187500 0.125000
v 0.593750 0.187500 0.125000
v 0.593750 0.187500 0.312500
v 0.875000 0.625000 0.625000
v 0.875000 0.625000 0.062500
v 0.937500 0.625000 0.062500
v 0.937500 0.625000 0.625000
v 0.875000 0.687500 0.625000
v 0.875000 0.687500 0.062500
v 0.937500 0.687500 0.062500
v 0.937500 0.687500 0.625000
v 0.125000 0.625000 0.125000
v 0.125000 0.625000 0.062500
v 0.875000 0.625000 0.062500
v 0.875000 0.625000 0.125000
v 0.125000 0.687500 0.125000
v 0.125000 0.687500 0.062500
v 0.875000 0.687500 0.062500
v 0.875000 0.687500 0.125000
v 0.000000 0.250000 0.750000
v 0.000000 0.250000 0.250000
v 0.062500 0.250000 0.250000
v 0.062500 0.250000 0.750000
v 0.000000 0.750000 0.750000
v 0.000000 0.750000 0.250000
v 0.062500 0.750000 0.250000
v 0.062500 0.750000 0.750000
v 0.375000 0.676001 0.948886
v 0.375000 0.958991 0.702835
v 0.625000 0.958991 0.702835
v 0.625000 0.676001 0.948886
v 0.375000 0.717009 0.996051
v 0.375000 1.000000 0.750000
v 0.625000 1.000000 0.750000
v 0.625000 0.717009 0.996051
v 0.937500 0.250000 0.750000
v 0.937500 0.250000 0.250000
v 1.000000 0.250000 0.250000
v 1.000000 0.250000 0.750000
v 0.937500 0.750000 0.750000
v 0.937500 0.750000 0.250000
v 1.000000 0.750000 0.250000
v 1.000000 0.750000 0.750000
v 0.687500 0.125000 0.312500
v 0.687500 0.125000 0.125000
v 0.875000 0.125000 0.125000
v 0.875000 0.125000 0.312500
v 0.687500 0.187500 0.312500
v 0.687500 0.187500 0.125000
v 0.875000 0.187500 0.125000
v 0.875000 0.187500 0.312500
v 0.000000 0.000000 1.000000
v -0.000000 0.000000 0.000000
v 1.000000 0.000000 0.000000
v 1.000000 0.000000 1.000000
v -0.000000 0.125000 1.000000
v 0.000000 0.125000 -0.000000
v 1.000000 0.125000 0.000000
v 1.000000 0.125000 1.000000
v 0.250000 0.250000 1.000000
v 0.250000 0.250000 0.937500
v 0.750000 0.250000 0.937500
v 0.750000 0.250000 1.000000
v 0.250000 0.750000 1.000000
v 0.250000 0.750000 0.937500
v 0.750000 0.750000 0.937500
v 0.750000 0.750000 1.000000
v 0.187500 0.125000 0.625000
v 0.187500 0.125000 0.437500
v 0.812500 0.125000 0.437500
v 0.812500 0.125000 0.625000
v 0.187500 0.312500 0.625000
v 0.187500 0.312500 0.437500
v 0.812500 0.312500 0.437500
v 0.812500 0.312500 0.625000
v 0.062500 0.125000 0.937500
v 0.062500 0.125000 0.625000
v 0.937500 0.125000 0.625000
v 0.937500 0.125000 0.937500
v 0.062500 0.687500 0.937500
v 0.062500 0.687500 0.625000
v 0.937500 0.687500 0.625000
v 0.937500 0.687500 0.937500
vt 0.625000 0.140625
vt 0.687500 0.015625
vt 0.687500 0.140625
vt 0.562500 0.140625
vt 0.625000 0.015625
vt 0.625000 0.140625
vt 0.687500 0.015625
vt 0.625000 0.000000
vt 0.687500 0.000000
vt 0.562500 0.000000
vt 0.562500 0.015625
vt 0.500000 0.000000
vt 0.750000 0.015625
vt 0.625000 0.015625
vt 0.500000 0.015625
vt 0.750000 0.000000
vt 0.375000 0.531250
vt 0.382812 0.671875
vt 0.382812 0.531250
vt 0.367188 0.671875
vt 0.375000 0.531250
vt 0.367188 0.531250
vt 0.304688 0.531250
vt 0.367188 0.515625
vt 0.304688 0.515625
vt 0.375000 0.515625
vt 0.445312 0.531250
vt 0.445312 0.515625
vt 0.296875 0.531250
vt 0.375000 0.671875
vt 0.375000 0.671875
vt 0.296875 0.515625
vt 0.070312 0.875000
vt 0.046875 0.828125
vt 0.070312 0.828125
vt 0.023438 0.875000
vt 0.046875 0.828125
vt 0.046875 0.875000
vt 0.070312 0.828125
vt 0.046875 0.812500
vt 0.070312 0.812500
vt 0.023438 0.812500
vt 0.000000 0.828125
vt 0.000000 0.812500
vt 0.093750 0.828125
vt 0.046875 0.875000
vt 0.023438 0.828125
vt 0.093750 0.812500
vt 0.070312 0.937500
vt 0.046875 0.890625
vt 0.070312 0.890625
vt 0.023438 0.937500
vt 0.046875 0.890625
vt 0.046875 0.937500
vt 0.070312 0.890625
vt 0.046875 0.875000
vt 0.070312 0.875000
vt 0.023438 0.875000
vt 0.000000 0.890625
vt 0.000000 0.875000
vt 0.093750 0.890625
vt 0.046875 0.937500
vt 0.023438 0.890625
vt 0.093750 0.875000
vt 0.375000 0.531250
vt 0.382812 0.671875
vt 0.382812 0.531250
vt 0.367188 0.671875
vt 0.375000 0.531250
vt 0.367188 0.531250
vt 0.304688 0.531250
vt 0.367188 0.515625
vt 0.304688 0.515625
vt 0.375000 0.515625
vt 0.445312 0.531250
vt 0.445312 0.515625
vt 0.296875 0.531250
vt 0.375000 0.671875
vt 0.375000 0.671875
vt 0.296875 0.515625
vt 0.492188 0.406250
vt 0.398438 0.390625
vt 0.492188 0.390625
vt 0.304688 0.406250
vt 0.398437 0.390625
vt 0.398438 0.406250
vt 0.406250 0.390625
vt 0.398438 0.375000
vt 0.406250 0.375000
vt 0.304688 0.375000
vt 0.304688 0.390625
vt 0.296875 0.375000
vt 0.500000 0.390625
vt 0.398438 0.406250
vt 0.296875 0.390625
vt 0.500000 0.375000
vt 0.578125 0.265625
vt 0.570312 0.390625
vt 0.570312 0.265625
vt 0.570312 0.390625
vt 0.562500 0.265625
vt 0.570312 0.265625
vt 0.632812 0.265625
vt 0.570312 0.140625
vt 0.632812 0.140625
vt 0.562500 0.140625
vt 0.500000 0.140625
vt 0.640625 0.265625
vt 0.578125 0.390625
vt 0.562500 0.390625
vt 0.500000 0.265625
vt 0.640625 0.140625
vt 0.406250 0.421875
vt 0.375000 0.515625
vt 0.406250 0.515625
vt 0.375000 0.515625
vt 0.343750 0.421875
vt 0.343750 0.515625
vt 0.296875 0.421875
vt 0.343750 0.406250
vt 0.296875 0.406250
vt 0.375000 0.406250
vt 0.421875 0.421875
vt 0.421875 0.406250
vt 0.265625 0.421875
vt 0.375000 0.421875
vt 0.375000 0.421875
vt 0.265625 0.406250
vt 0.578125 0.515625
vt 0.570312 0.640625
vt 0.570312 0.515625
vt 0.570312 0.640625
vt 0.562500 0.515625
vt 0.570312 0.515625
vt 0.632812 0.515625
vt 0.570312 0.390625
vt 0.632812 0.390625
vt 0.562500 0.390625
vt 0.500000 0.390625
vt 0.640625 0.515625
vt 0.578125 0.640625
vt 0.562500 0.640625
vt 0.500000 0.515625
vt 0.640625 0.390625
vt 0.070312 1.000000
vt 0.046875 0.953125
vt 0.070312 0.953125
vt 0.023438 1.000000
vt 0.046875 0.953125
vt 0.046875 1.000000
vt 0.070312 0.953125
vt 0.046875 0.937500
vt 0.070312 0.937500
vt 0.023438 0.937500
vt 0.000000 0.953125
vt 0.000000 0.937500
vt 0.093750 0.953125
vt 0.046875 1.000000
vt 0.023438 0.953125
vt 0.093750 0.937500
vt 0.250000 0.281250
vt 0.375000 0.031250
vt 0.375000 0.281250
vt 0.125000 0.281250
vt 0.250000 0.031250
vt 0.250000 0.281250
vt 0.375000 0.031250
vt 0.250000 0.000000
vt 0.375000 0.000000
vt 0.125000 0.000000
vt 0.125000 0.031250
vt 0.000000 0.000000
vt 0.500000 0.031250
vt 0.250000 0.031250
vt 0.000000 0.031250
vt 0.500000 0.000000
vt 0.632812 0.781250
vt 0.570312 0.765625
vt 0.632812 0.765625
vt 0.507812 0.781250
vt 0.570312 0.765625
vt 0.570312 0.781250
vt 0.578125 0.765625
vt 0.570312 0.640625
vt 0.578125 0.640625
vt 0.507812 0.640625
vt 0.507812 0.765625
vt 0.500000 0.640625
vt 0.640625 0.765625
vt 0.570312 0.781250
vt 0.500000 0.765625
vt 0.640625 0.640625
vt 0.476562 0.375000
vt 0.398438 0.328125
vt 0.476562 0.328125
vt 0.320313 0.375000
vt 0.398438 0.328125
vt 0.398438 0.375000
vt 0.421875 0.328125
vt 0.398438 0.281250
vt 0.421875 0.281250
vt 0.320312 0.281250
vt 0.320312 0.328125
vt 0.296875 0.281250
vt 0.500000 0.328125
vt 0.398437 0.375000
vt 0.296875 0.328125
vt 0.500000 0.281250
vt 0.257812 0.421875
vt 0.148438 0.500000
vt 0.148438 0.421875
vt 0.039062 0.500000
vt 0.148438 0.421875
vt 0.148438 0.500000
vt 0.187500 0.421875
vt 0.148438 0.281250
vt 0.187500 0.281250
vt 0.039062 0.281250
vt 0.039062 0.421875
vt 0.000000 0.281250
vt 0.296875 0.421875
vt 0.257812 0.500000
vt 0.000000 0.421875
vt 0.296875 0.281250
vn 0.0000 -1.0000 0.0000
vn 0.0000 1.0000 -0.0000
vn -1.0000 -0.0000 0.0000
vn 0.0000 -0.0000 -1.0000
vn 1.0000 -0.0000 0.0000
vn -0.0000 0.0000 1.0000
vn -0.0000 -0.6561 -0.7546
vn 0.0000 0.6561 0.7546
vn 0.0000 0.7546 -0.6561
vn -0.0000 -0.7546 0.6561
usemtl Material
s off
f 2/1/1 4/2/1 1/3/1
f 8/4/2 6/5/2 5/6/2
f 5/7/3 2/8/3 1/9/3
f 6/5/4 3/10/4 2/8/4
f 7/11/5 4/12/5 3/10/5
f 1/9/6 8/13/6 5/7/6
f 2/1/1 3/14/1 4/2/1
f 8/4/2 7/11/2 6/5/2
f 5/7/3 6/5/3 2/8/3
f 6/5/4 7/11/4 3/10/4
f 7/11/5 8/15/5 4/12/5
f 1/9/6 4/16/6 8/13/6
f 9/17/1 11/18/1 12/19/1
f 13/20/2 15/21/2 14/22/2
f 13/23/3 10/24/3 9/25/3
f 14/22/4 11/26/4 10/24/4
f 11/26/5 16/27/5 12/28/5
f 9/25/6 16/29/6 13/23/6
f 9/17/1 10/30/1 11/18/1
f 13/20/2 16/31/2 15/21/2
f 13/23/3 14/22/3 10/24/3
f 14/22/4 15/21/4 11/26/4
f 11/26/5 15/21/5 16/27/5
f 9/25/6 12/32/6 16/29/6
f 18/33/1 20/34/1 17/35/1
f 24/36/2 22/37/2 21/38/2
f 21/39/3 18/40/3 17/41/3
f 22/37/4 19/42/4 18/40/4
f 19/42/5 24/43/5 20/44/5
f 17/41/6 24/45/6 21/39/6
f 18/33/1 19/46/1 20/34/1
f 24/36/2 23/47/2 22/37/2
f 21/39/3 22/37/3 18/40/3
f 22/37/4 23/47/4 19/42/4
f 19/42/5 23/47/5 24/43/5
f 17/41/6 20/48/6 24/45/6
f 26/49/1 28/50/1 25/51/1
f 32/52/2 30/53/2 29/54/2
f 29/55/3 26/56/3 25/57/3
f 30/53/4 27/58/4 26/56/4
f 27/58/5 32/59/5 28/60/5
f 25/57/6 32/61/6 29/55/6
f 26/49/1 27/62/1 28/50/1
f 32/52/2 31/63/2 30/53/2
f 29/55/3 30/53/3 26/56/3
f 30/53/4 31/63/4 27/58/4
f 27/58/5 31/63/5 32/59/5
f 25/57/6 28/64/6 32/61/6
f 33/65/1 35/66/1 36/67/1
f 37/68/2 39/69/2 38/70/2
f 37/71/3 34/72/3 33/73/3
f 38/70/4 35/74/4 34/72/4
f 35/74/5 40/75/5 36/76/5
f 33/73/6 40/77/6 37/71/6
f 33/65/1 34/78/1 35/66/1
f 37/68/2 40/79/2 39/69/2
f 37/71/3 38/70/3 34/72/3
f 38/70/4 39/69/4 35/74/4
f 35/74/5 39/69/5 40/75/5
f 33/73/6 36/80/6 40/77/6
f 42/81/1 44/82/1 41/83/1
f 48/84/2 46/85/2 45/86/2
f 45/87/3 42/88/3 41/89/3
f 46/85/4 43/90/4 42/88/4
f 47/91/5 44/92/5 43/90/5
f 41/89/6 48/93/6 45/87/6
f 42/81/1 43/94/1 44/82/1
f 48/84/2 47/91/2 46/85/2
f 45/87/3 46/85/3 42/88/3
f 46/85/4 47/91/4 43/90/4
f 47/91/5 48/95/5 44/92/5
f 41/89/6 44/96/6 48/93/6
f 49/97/1 51/98/1 52/99/1
f 53/100/2 55/101/2 54/102/2
f 53/103/3 50/104/3 49/105/3
f 50/104/4 55/101/4 51/106/4
f 55/101/5 52/107/5 51/106/5
f 49/105/6 56/108/6 53/103/6
f 49/97/1 50/109/1 51/98/1
f 53/100/2 56/110/2 55/101/2
f 53/103/3 54/102/3 50/104/3
f 50/104/4 54/102/4 55/101/4
f 55/101/5 56/111/5 52/107/5
f 49/105/6 52/112/6 56/108/6
f 58/113/7 60/114/7 57/115/7
f 64/116/8 62/117/8 61/118/8
f 61/119/3 58/120/3 57/121/3
f 62/117/9 59/122/9 58/120/9
f 59/122/5 64/123/5 60/124/5
f 57/121/10 64/125/10 61/119/10
f 58/113/7 59/126/7 60/114/7
f 64/116/8 63/127/8 62/117/8
f 61/119/3 62/117/3 58/120/3
f 62/117/9 63/127/9 59/122/9
f 59/122/5 63/127/5 64/123/5
f 57/121/10 60/128/10 64/125/10
f 65/129/1 67/130/1 68/131/1
f 69/132/2 71/133/2 70/134/2
f 69/135/3 66/136/3 65/137/3
f 66/136/4 71/133/4 67/138/4
f 71/133/5 68/139/5 67/138/5
f 65/137/6 72/140/6 69/135/6
f 65/129/1 66/141/1 67/130/1
f 69/132/2 72/142/2 71/133/2
f 69/135/3 70/134/3 66/136/3
f 66/136/4 70/134/4 71/133/4
f 71/133/5 72/143/5 68/139/5
f 65/137/6 68/144/6 72/140/6
f 74/145/1 76/146/1 73/147/1
f 80/148/2 78/149/2 77/150/2
f 77/151/3 74/152/3 73/153/3
f 78/149/4 75/154/4 74/152/4
f 75/154/5 80/155/5 76/156/5
f 73/153/6 80/157/6 77/151/6
f 74/145/1 75/158/1 76/146/1
f 80/148/2 79/159/2 78/149/2
f 77/151/3 78/149/3 74/152/3
f 78/149/4 79/159/4 75/154/4
f 75/154/5 79/159/5 80/155/5
f 73/153/6 76/160/6 80/157/6
f 82/161/1 84/162/1 81/163/1
f 88/164/2 86/165/2 85/166/2
f 85/167/3 82/168/3 81/169/3
f 86/165/4 83/170/4 82/168/4
f 87/171/5 84/172/5 83/170/5
f 81/169/6 88/173/6 85/167/6
f 82/161/1 83/174/1 84/162/1
f 88/164/2 87/171/2 86/165/2
f 85/167/3 86/165/3 82/168/3
f 86/165/4 87/171/4 83/170/4
f 87/171/5 88/175/5 84/172/5
f 81/169/6 84/176/6 88/173/6
f 90/177/1 92/178/1 89/179/1
f 96/180/2 94/181/2 93/182/2
f 93/183/3 90/184/3 89/185/3
f 94/181/4 91/186/4 90/184/4
f 95/187/5 92/188/5 91/186/5
f 89/185/6 96/189/6 93/183/6
f 90/177/1 91/190/1 92/178/1
f 96/180/2 95/187/2 94/181/2
f 93/183/3 94/181/3 90/184/3
f 94/181/4 95/187/4 91/186/4
f 95/187/5 96/191/5 92/188/5
f 89/185/6 92/192/6 96/189/6
f 98/193/1 100/194/1 97/195/1
f 104/196/2 102/197/2 101/198/2
f 101/199/3 98/200/3 97/201/3
f 102/197/4 99/202/4 98/200/4
f 103/203/5 100/204/5 99/202/5
f 97/201/6 104/205/6 101/199/6
f 98/193/1 99/206/1 100/194/1
f 104/196/2 103/203/2 102/197/2
f 101/199/3 102/197/3 98/200/3
f 102/197/4 103/203/4 99/202/4
f 103/203/5 104/207/5 100/204/5
f 97/201/6 100/208/6 104/205/6
f 105/209/1 107/210/1 108/211/1
f 112/212/2 110/213/2 109/214/2
f 109/215/3 106/216/3 105/217/3
f 110/213/4 107/218/4 106/216/4
f 111/219/5 108/220/5 107/218/5
f 105/217/6 112/221/6 109/215/6
f 105/209/1 106/222/1 107/210/1
f 112/212/2 111/219/2 110/213/2
f 109/215/3 110/213/3 106/216/3
f 110/213/4 111/219/4 107/218/4
f 111/219/5 112/223/5 108/220/5
f 105/217/6 108/224/6 112/221/6
