mtllib ./unnamed.mtl
g SubMesh_0
v 0.1875492 -7.553254E-09 0.436691
v 0.0625492 -7.553254E-09 0.436691
v 0.0625492 0.06249999 0.436691
v 0.1875492 0.06249999 0.436691
v 0.1875492 -7.553254E-09 0.624191
v 0.1875492 -7.553254E-09 0.436691
v 0.1875492 0.06249999 0.436691
v 0.1875492 0.06249999 0.624191
v 0.06254918 -7.553254E-09 0.624191
v 0.1875492 -7.553254E-09 0.624191
v 0.1875492 0.06249999 0.624191
v 0.06254918 0.06249999 0.624191
v 0.0625492 -7.553254E-09 0.436691
v 0.06254918 -7.553254E-09 0.624191
v 0.06254918 0.06249999 0.624191
v 0.0625492 0.06249999 0.436691
v 0.06254918 0.06249999 0.624191
v 0.1875492 0.06249999 0.624191
v 0.1875492 0.06249999 0.436691
v 0.0625492 0.06249999 0.436691
v 0.0625492 -7.553254E-09 0.436691
v 0.1875492 -7.553254E-09 0.436691
v 0.1875492 -7.553254E-09 0.624191
v 0.06254918 -7.553254E-09 0.624191
v 0.7935587 -7.553254E-09 0.5075645
v 0.6853055 -7.553254E-09 0.4450645
v 0.6853055 0.06249999 0.4450645
v 0.7935587 0.06249999 0.5075645
v 0.6998087 -7.553254E-09 0.6699443
v 0.7935587 -7.553254E-09 0.5075645
v 0.7935587 0.06249999 0.5075645
v 0.6998087 0.06249999 0.6699443
v 0.5915556 -7.553254E-09 0.6074442
v 0.6998087 -7.553254E-09 0.6699443
v 0.6998087 0.06249999 0.6699443
v 0.5915556 0.06249999 0.6074442
v 0.6853055 -7.553254E-09 0.4450645
v 0.5915556 -7.553254E-09 0.6074442
v 0.5915556 0.06249999 0.6074442
v 0.6853055 0.06249999 0.4450645
v 0.5915556 0.06249999 0.6074442
v 0.6998087 0.06249999 0.6699443
v 0.7935587 0.06249999 0.5075645
v 0.6853055 0.06249999 0.4450645
v 0.6853055 -7.553254E-09 0.4450645
v 0.7935587 -7.553254E-09 0.5075645
v 0.6998087 -7.553254E-09 0.6699443
v 0.5915556 -7.553254E-09 0.6074442
v 0.2963098 -7.553254E-09 0.09543008
v 0.1732089 -7.553254E-09 0.07372405
v 0.1732089 0.06249999 0.07372405
v 0.2963098 0.06249999 0.09543008
v 0.2637508 -7.553254E-09 0.2800815
v 0.2963098 -7.553254E-09 0.09543008
v 0.2963098 0.06249999 0.09543008
v 0.2637508 0.06249999 0.2800815
v 0.1406498 -7.553254E-09 0.2583755
v 0.2637508 -7.553254E-09 0.2800815
v 0.2637508 0.06249999 0.2800815
v 0.1406498 0.06249999 0.2583755
v 0.1732089 -7.553254E-09 0.07372405
v 0.1406498 -7.553254E-09 0.2583755
v 0.1406498 0.06249999 0.2583755
v 0.1732089 0.06249999 0.07372405
v 0.1406498 0.06249999 0.2583755
v 0.2637508 0.06249999 0.2800815
v 0.2963098 0.06249999 0.09543008
v 0.1732089 0.06249999 0.07372405
v 0.1732089 -7.553254E-09 0.07372405
v 0.2963098 -7.553254E-09 0.09543008
v 0.2637508 -7.553254E-09 0.2800815
v 0.1406498 -7.553254E-09 0.2583755
v 0.5099527 -7.553254E-09 0.3234936
v 0.3868517 -7.553254E-09 0.3017876
v 0.3868517 0.06249999 0.3017876
v 0.5099527 0.06249999 0.3234936
v 0.4882467 -7.553254E-09 0.4465945
v 0.5099527 -7.553254E-09 0.3234936
v 0.5099527 0.06249999 0.3234936
v 0.4882467 0.06249999 0.4465945
v 0.3651457 -7.553254E-09 0.4248886
v 0.4882467 -7.553254E-09 0.4465945
v 0.4882467 0.06249999 0.4465945
v 0.3651457 0.06249999 0.4248886
v 0.3868517 -7.553254E-09 0.3017876
v 0.3651457 -7.553254E-09 0.4248886
v 0.3651457 0.06249999 0.4248886
v 0.3868517 0.06249999 0.3017876
v 0.3651457 0.06249999 0.4248886
v 0.4882467 0.06249999 0.4465945
v 0.5099527 0.06249999 0.3234936
v 0.3868517 0.06249999 0.3017876
v 0.3868517 -7.553254E-09 0.3017876
v 0.5099527 -7.553254E-09 0.3234936
v 0.4882467 -7.553254E-09 0.4465945
v 0.3651457 -7.553254E-09 0.4248886
v 0.4204856 -7.553254E-09 0.6862248
v 0.32473 -7.553254E-09 0.6058764
v 0.32473 0.06249999 0.6058764
v 0.4204856 0.06249999 0.6862248
v 0.3401372 -7.553254E-09 0.7819804
v 0.4204856 -7.553254E-09 0.6862248
v 0.4204856 0.06249999 0.6862248
v 0.3401372 0.06249999 0.7819804
v 0.2443816 -7.553254E-09 0.7016319
v 0.3401372 -7.553254E-09 0.7819804
v 0.3401372 0.06249999 0.7819804
v 0.2443816 0.06249999 0.7016319
v 0.32473 -7.553254E-09 0.6058764
v 0.2443816 -7.553254E-09 0.7016319
v 0.2443816 0.06249999 0.7016319
v 0.32473 0.06249999 0.6058764
v 0.2443816 0.06249999 0.7016319
v 0.3401372 0.06249999 0.7819804
v 0.4204856 0.06249999 0.6862248
v 0.32473 0.06249999 0.6058764

vn 8.742278E-08 0 -1
vn 8.742278E-08 0 -1
vn 8.742278E-08 0 -1
vn 8.742278E-08 0 -1
vn 1 0 8.742278E-08
vn 1 0 8.742278E-08
vn 1 0 8.742278E-08
vn 1 0 8.742278E-08
vn -8.742278E-08 0 1
vn -8.742278E-08 0 1
vn -8.742278E-08 0 1
vn -8.742278E-08 0 1
vn -1 0 -8.742278E-08
vn -1 0 -8.742278E-08
vn -1 0 -8.742278E-08
vn -1 0 -8.742278E-08
vn 0 1 0
vn 0 1 0
vn 0 1 0
vn 0 1 0
vn 0 -1 0
vn 0 -1 0
vn 0 -1 0
vn 0 -1 0
vn 0.5000001 0 -0.8660253
vn 0.5000001 0 -0.8660253
vn 0.5000001 0 -0.8660253
vn 0.5000001 0 -0.8660253
vn 0.8660253 0 0.5000001
vn 0.8660253 0 0.5000001
vn 0.8660253 0 0.5000001
vn 0.8660253 0 0.5000001
vn -0.5000001 0 0.8660253
vn -0.5000001 0 0.8660253
vn -0.5000001 0 0.8660253
vn -0.5000001 0 0.8660253
vn -0.8660253 0 -0.5000001
vn -0.8660253 0 -0.5000001
vn -0.8660253 0 -0.5000001
vn -0.8660253 0 -0.5000001
vn 0 1 0
vn 0 1 0
vn 0 1 0
vn 0 1 0
vn 0 -1 0
vn 0 -1 0
vn 0 -1 0
vn 0 -1 0
vn 0.1736483 0 -0.9848077
vn 0.1736483 0 -0.9848077
vn 0.1736483 0 -0.9848077
vn 0.1736483 0 -0.9848077
vn 0.9848077 0 0.1736483
vn 0.9848077 0 0.1736483
vn 0.9848077 0 0.1736483
vn 0.9848077 0 0.1736483
vn -0.1736483 0 0.9848077
vn -0.1736483 0 0.9848077
vn -0.1736483 0 0.9848077
vn -0.1736483 0 0.9848077
vn -0.9848077 0 -0.1736483
vn -0.9848077 0 -0.1736483
vn -0.9848077 0 -0.1736483
vn -0.9848077 0 -0.1736483
vn 0 1 0
vn 0 1 0
vn 0 1 0
vn 0 1 0
vn 0 -1 0
vn 0 -1 0
vn 0 -1 0
vn 0 -1 0
vn 0.1736483 0 -0.9848077
vn 0.1736483 0 -0.9848077
vn 0.1736483 0 -0.9848077
vn 0.1736483 0 -0.9848077
vn 0.9848077 0 0.1736483
vn 0.9848077 0 0.1736483
vn 0.9848077 0 0.1736483
vn 0.9848077 0 0.1736483
vn -0.1736483 0 0.9848077
vn -0.1736483 0 0.9848077
vn -0.1736483 0 0.9848077
vn -0.1736483 0 0.9848077
vn -0.9848077 0 -0.1736483
vn -0.9848077 0 -0.1736483
vn -0.9848077 0 -0.1736483
vn -0.9848077 0 -0.1736483
vn 0 1 0
vn 0 1 0
vn 0 1 0
vn 0 1 0
vn 0 -1 0
vn 0 -1 0
vn 0 -1 0
vn 0 -1 0
vn 0.6427877 0 -0.7660444
vn 0.6427877 0 -0.7660444
vn 0.6427877 0 -0.7660444
vn 0.6427877 0 -0.7660444
vn 0.7660444 0 0.6427877
vn 0.7660444 0 0.6427877
vn 0.7660444 0 0.6427877
vn 0.7660444 0 0.6427877
vn -0.6427877 0 0.7660444
vn -0.6427877 0 0.7660444
vn -0.6427877 0 0.7660444
vn -0.6427877 0 0.7660444
vn -0.7660444 0 -0.6427877
vn -0.7660444 0 -0.6427877
vn -0.7660444 0 -0.6427877
vn -0.7660444 0 -0.6427877
vn 0 1 0
vn 0 1 0
vn 0 1 0
vn 0 1 0

vt 0.1875 0.75
vt 0.3125 0.75
vt 0.3125 0.8125
vt 0.1875 0.8125
vt 0 0.75
vt 0.1875 0.75
vt 0.1875 0.8125
vt 0 0.8125
vt 0.5 0.75
vt 0.625 0.75
vt 0.625 0.8125
vt 0.5 0.8125
vt 0.3125 0.75
vt 0.5 0.75
vt 0.5 0.8125
vt 0.3125 0.8125
vt 0.3125 1
vt 0.1875 1
vt 0.1875 0.8125
vt 0.3125 0.8125
vt 0.4375 0.8125
vt 0.3125 0.8125
vt 0.3125 1
vt 0.4375 1
vt 0.1875 0.75
vt 0.3125 0.75
vt 0.3125 0.8125
vt 0.1875 0.8125
vt 0 0.75
vt 0.1875 0.75
vt 0.1875 0.8125
vt 0 0.8125
vt 0.5 0.75
vt 0.625 0.75
vt 0.625 0.8125
vt 0.5 0.8125
vt 0.3125 0.75
vt 0.5 0.75
vt 0.5 0.8125
vt 0.3125 0.8125
vt 0.3125 1
vt 0.1875 1
vt 0.1875 0.8125
vt 0.3125 0.8125
vt 0.4375 0.8125
vt 0.3125 0.8125
vt 0.3125 1
vt 0.4375 1
vt 0.1875 0.75
vt 0.3125 0.75
vt 0.3125 0.8125
vt 0.1875 0.8125
vt 0 0.75
vt 0.1875 0.75
vt 0.1875 0.8125
vt 0 0.8125
vt 0.5 0.75
vt 0.625 0.75
vt 0.625 0.8125
vt 0.5 0.8125
vt 0.3125 0.75
vt 0.5 0.75
vt 0.5 0.8125
vt 0.3125 0.8125
vt 0.3125 1
vt 0.1875 1
vt 0.1875 0.8125
vt 0.3125 0.8125
vt 0.4375 0.8125
vt 0.3125 0.8125
vt 0.3125 1
vt 0.4375 1
vt 0.125 0.8125
vt 0.25 0.8125
vt 0.25 0.875
vt 0.125 0.875
vt 0 0.8125
vt 0.125 0.8125
vt 0.125 0.875
vt 0 0.875
vt 0.375 0.8125
vt 0.5 0.8125
vt 0.5 0.875
vt 0.375 0.875
vt 0.25 0.8125
vt 0.375 0.8125
vt 0.375 0.875
vt 0.25 0.875
vt 0.25 1
vt 0.125 1
vt 0.125 0.875
vt 0.25 0.875
vt 0.375 0.875
vt 0.25 0.875
vt 0.25 1
vt 0.375 1
vt 0.125 0.8125
vt 0.25 0.8125
vt 0.25 0.875
vt 0.125 0.875
vt 0 0.8125
vt 0.125 0.8125
vt 0.125 0.875
vt 0 0.875
vt 0.375 0.8125
vt 0.5 0.8125
vt 0.5 0.875
vt 0.375 0.875
vt 0.25 0.8125
vt 0.375 0.8125
vt 0.375 0.875
vt 0.25 0.875
vt 0.25 1
vt 0.125 1
vt 0.125 0.875
vt 0.25 0.875

usemtl m_0
usemap m_0
f 2/2/2 4/4/4 1/1/1
f 3/3/3 4/4/4 2/2/2
f 6/6/6 8/8/8 5/5/5
f 7/7/7 8/8/8 6/6/6
f 10/10/10 12/12/12 9/9/9
f 11/11/11 12/12/12 10/10/10
f 14/14/14 16/16/16 13/13/13
f 15/15/15 16/16/16 14/14/14
f 18/18/18 20/20/20 17/17/17
f 19/19/19 20/20/20 18/18/18
f 22/22/22 24/24/24 21/21/21
f 23/23/23 24/24/24 22/22/22
f 26/26/26 28/28/28 25/25/25
f 27/27/27 28/28/28 26/26/26
f 30/30/30 32/32/32 29/29/29
f 31/31/31 32/32/32 30/30/30
f 34/34/34 36/36/36 33/33/33
f 35/35/35 36/36/36 34/34/34
f 38/38/38 40/40/40 37/37/37
f 39/39/39 40/40/40 38/38/38
f 42/42/42 44/44/44 41/41/41
f 43/43/43 44/44/44 42/42/42
f 46/46/46 48/48/48 45/45/45
f 47/47/47 48/48/48 46/46/46
f 50/50/50 52/52/52 49/49/49
f 51/51/51 52/52/52 50/50/50
f 54/54/54 56/56/56 53/53/53
f 55/55/55 56/56/56 54/54/54
f 58/58/58 60/60/60 57/57/57
f 59/59/59 60/60/60 58/58/58
f 62/62/62 64/64/64 61/61/61
f 63/63/63 64/64/64 62/62/62
f 66/66/66 68/68/68 65/65/65
f 67/67/67 68/68/68 66/66/66
f 70/70/70 72/72/72 69/69/69
f 71/71/71 72/72/72 70/70/70
f 74/74/74 76/76/76 73/73/73
f 75/75/75 76/76/76 74/74/74
f 78/78/78 80/80/80 77/77/77
f 79/79/79 80/80/80 78/78/78
f 82/82/82 84/84/84 81/81/81
f 83/83/83 84/84/84 82/82/82
f 86/86/86 88/88/88 85/85/85
f 87/87/87 88/88/88 86/86/86
f 90/90/90 92/92/92 89/89/89
f 91/91/91 92/92/92 90/90/90
f 94/94/94 96/96/96 93/93/93
f 95/95/95 96/96/96 94/94/94
f 98/98/98 100/100/100 97/97/97
f 99/99/99 100/100/100 98/98/98
f 102/102/102 104/104/104 101/101/101
f 103/103/103 104/104/104 102/102/102
f 106/106/106 108/108/108 105/105/105
f 107/107/107 108/108/108 106/106/106
f 110/110/110 112/112/112 109/109/109
f 111/111/111 112/112/112 110/110/110
f 114/114/114 116/116/116 113/113/113
f 115/115/115 116/116/116 114/114/114
