# Blender v2.78 (sub 5) OBJ File: ''
# www.blender.org
mtllib square.mtl
o Plane.003_Plane.004
v -1.000000 1.000000 0.750000
v -1.000000 -1.000000 0.750000
v 1.000000 1.000000 0.750000
v 1.000000 -1.000000 0.750000
vn -0.0000 0.0000 1.0000
usemtl None
s off
f 1//1 2//1 4//1 3//1
o Plane.002_Plane.003
v -1.000000 1.000000 -0.750000
v -1.000000 -1.000000 -0.750000
v 1.000000 1.000000 -0.750000
v 1.000000 -1.000000 -0.750000
vn -0.0000 0.0000 1.0000
usemtl None
s off
f 5//2 6//2 8//2 7//2
o Plane_Plane.002
v 0.750000 1.000000 1.000000
v 0.750000 -1.000000 1.000000
v 0.750000 1.000000 -1.000000
v 0.750000 -1.000000 -1.000000
vn 1.0000 -0.0000 0.0000
usemtl None
s off
f 9//3 10//3 12//3 11//3
o Plane.001
v -0.750000 1.000000 1.000000
v -0.750000 -1.000000 1.000000
v -0.750000 1.000000 -1.000000
v -0.750000 -1.000000 -1.000000
vn 1.0000 -0.0000 0.0000
usemtl None
s off
f 13//4 14//4 16//4 15//4
