# Blender v2.79 (sub 0) OBJ File: 'microscope4.blend'
# www.blender.org
mtllib microscope_1.mtl
o microscope
v 0.062500 0.000000 0.937500
v 0.062500 0.000000 0.062500
v 0.937500 0.000000 0.062500
v 0.937500 0.000000 0.937500
v 0.062500 0.125000 0.937500
v 0.062500 0.125000 0.062500
v 0.937500 0.125000 0.062500
v 0.937500 0.125000 0.937500
v 0.388158 0.586682 0.633593
v 0.386274 0.575993 0.572042
v 0.447824 0.565140 0.572042
v 0.449709 0.575829 0.633593
v 0.420223 0.768528 0.601034
v 0.418338 0.757840 0.539483
v 0.479889 0.746987 0.539483
v 0.481773 0.757675 0.601034
v 0.550919 0.572266 0.633076
v 0.552804 0.561578 0.571525
v 0.614354 0.572431 0.571525
v 0.612470 0.583119 0.633076
v 0.518855 0.754112 0.600517
v 0.520740 0.743424 0.538966
v 0.582290 0.754277 0.538966
v 0.580405 0.764965 0.600517
v 0.250000 0.312500 0.187500
v 0.250000 0.312500 0.062500
v 0.312500 0.312500 0.062500
v 0.312500 0.312500 0.187500
v 0.250000 0.437500 0.187500
v 0.250000 0.437500 0.062500
v 0.312500 0.437500 0.062500
v 0.312500 0.437500 0.187500
v 0.312500 0.343750 0.156250
v 0.312500 0.343750 0.093750
v 0.687500 0.343750 0.093750
v 0.687500 0.343750 0.156250
v 0.312500 0.406250 0.156250
v 0.312500 0.406250 0.093750
v 0.687500 0.406250 0.093750
v 0.687500 0.406250 0.156250
v 0.687500 0.312500 0.187500
v 0.687500 0.312500 0.062500
v 0.750000 0.312500 0.062500
v 0.750000 0.312500 0.187500
v 0.687500 0.437500 0.187500
v 0.687500 0.437500 0.062500
v 0.750000 0.437500 0.062500
v 0.750000 0.437500 0.187500
v 0.468750 0.500000 0.531250
v 0.468750 0.500000 0.468750
v 0.531250 0.500000 0.468750
v 0.531250 0.500000 0.531250
v 0.468750 0.687500 0.531250
v 0.468750 0.687500 0.468750
v 0.531250 0.687500 0.468750
v 0.531250 0.687500 0.531250
v 0.468750 0.763835 0.367335
v 0.468750 0.718877 0.323919
v 0.531250 0.718877 0.323919
v 0.531250 0.763835 0.367335
v 0.468750 0.937500 0.187500
v 0.468750 0.892541 0.144084
v 0.531250 0.892541 0.144084
v 0.531250 0.937500 0.187500
v 0.375000 0.687500 0.625000
v 0.375000 0.687500 0.312500
v 0.625000 0.687500 0.312500
v 0.625000 0.687500 0.625000
v 0.375000 0.812500 0.625000
v 0.375000 0.812500 0.312500
v 0.625000 0.812500 0.312500
v 0.625000 0.812500 0.625000
v 0.437500 0.423916 0.240024
v 0.437500 0.484518 0.130696
v 0.562500 0.484518 0.130696
v 0.562500 0.423916 0.240024
v 0.437500 0.751899 0.421827
v 0.437500 0.812500 0.312500
v 0.562500 0.812500 0.312500
v 0.562500 0.751899 0.421827
v 0.437500 0.125000 0.562500
v 0.437500 0.125000 0.437500
v 0.562500 0.125000 0.437500
v 0.562500 0.125000 0.562500
v 0.437500 0.250000 0.562500
v 0.437500 0.250000 0.437500
v 0.562500 0.250000 0.437500
v 0.562500 0.250000 0.562500
v 0.250000 0.312500 0.750000
v 0.250000 0.312500 0.250000
v 0.750000 0.312500 0.250000
v 0.750000 0.312500 0.750000
v 0.250000 0.375000 0.750000
v 0.250000 0.375000 0.250000
v 0.750000 0.375000 0.250000
v 0.750000 0.375000 0.750000
v 0.375000 0.125000 0.312500
v 0.375000 0.125000 0.062500
v 0.625000 0.125000 0.062500
v 0.625000 0.125000 0.312500
v 0.375000 0.500000 0.312500
v 0.375000 0.500000 0.062500
v 0.625000 0.500000 0.062500
v 0.625000 0.500000 0.312500
vt 0.781250 0.500000
vt 0.562500 0.062500
vt 0.781250 0.062500
vt 0.343750 0.500000
vt 0.562500 0.062542
vt 0.562500 0.500000
vt 0.781250 0.062500
vt 0.562500 0.000000
vt 0.781250 0.000000
vt 0.343750 0.000000
vt 0.343750 0.062500
vt 0.125015 0.000000
vt 1.000000 0.062500
vt 0.562500 0.500000
vt 0.124985 0.062500
vt 1.000000 0.000000
vt 0.125000 1.000000
vt 0.140625 0.968750
vt 0.140625 1.000000
vt 0.109375 1.000000
vt 0.125000 0.968750
vt 0.125000 1.000000
vt 0.140625 0.968750
vt 0.125000 0.875000
vt 0.140625 0.875000
vt 0.109375 0.875000
vt 0.109375 0.968750
vt 0.093750 0.875000
vt 0.156250 0.968750
vt 0.125000 0.968750
vt 0.093750 0.968750
vt 0.156250 0.875000
vt 0.125000 1.000000
vt 0.140625 0.968750
vt 0.140625 1.000000
vt 0.109375 1.000000
vt 0.125000 0.968750
vt 0.125000 1.000000
vt 0.140625 0.968750
vt 0.125000 0.875000
vt 0.140625 0.875000
vt 0.109375 0.875000
vt 0.109375 0.968750
vt 0.093750 0.875000
vt 0.156250 0.968750
vt 0.125000 0.968750
vt 0.093750 0.968750
vt 0.156250 0.875000
vt 0.062500 1.000000
vt 0.046875 0.937500
vt 0.062500 0.937500
vt 0.046875 1.000000
vt 0.031250 0.937500
vt 0.046875 0.937500
vt 0.078125 0.937500
vt 0.046875 0.875000
vt 0.078125 0.875000
vt 0.031250 0.875000
vt 0.000000 0.875000
vt 0.093750 0.937500
vt 0.046875 1.000000
vt 0.031250 1.000000
vt -0.000000 0.937500
vt 0.093750 0.875000
vt 0.359375 1.000000
vt 0.265625 0.968750
vt 0.359375 0.968750
vt 0.171875 1.000000
vt 0.265625 0.968750
vt 0.265625 1.000000
vt 0.281250 0.968750
vt 0.265625 0.937500
vt 0.281250 0.937500
vt 0.171875 0.937500
vt 0.171875 0.968750
vt 0.156250 0.937500
vt 0.375000 0.968750
vt 0.265625 1.000000
vt 0.156250 0.968750
vt 0.375000 0.937500
vt 0.062500 1.000000
vt 0.046875 0.937500
vt 0.062500 0.937500
vt 0.046875 1.000000
vt 0.031250 0.937500
vt 0.046875 0.937500
vt 0.078125 0.937500
vt 0.046875 0.875000
vt 0.078125 0.875000
vt 0.031250 0.875000
vt 0.000000 0.875000
vt 0.093750 0.937500
vt 0.046875 1.000000
vt 0.031250 1.000000
vt -0.000000 0.937500
vt 0.093750 0.875000
vt 0.125000 1.000000
vt 0.140625 0.968750
vt 0.140625 1.000000
vt 0.109375 1.000000
vt 0.125000 0.968750
vt 0.125000 1.000000
vt 0.140625 0.968750
vt 0.125000 0.875000
vt 0.140625 0.875000
vt 0.109375 0.875000
vt 0.109375 0.968750
vt 0.093750 0.875000
vt 0.156250 0.968750
vt 0.125000 0.968750
vt 0.093750 0.968750
vt 0.156250 0.875000
vt 0.046875 0.875000
vt 0.031250 0.843750
vt 0.046875 0.843750
vt 0.015625 0.875000
vt 0.031250 0.843750
vt 0.031250 0.875000
vt 0.046896 0.843750
vt 0.031250 0.718750
vt 0.046896 0.718750
vt 0.015625 0.718750
vt 0.015625 0.843750
vt 0.000000 0.718750
vt 0.062500 0.843750
vt 0.031250 0.875000
vt -0.000000 0.843750
vt 0.062500 0.718750
vt 0.921875 1.000000
vt 0.859375 0.843750
vt 0.921875 0.843750
vt 0.796875 1.000000
vt 0.859375 0.843750
vt 0.859375 1.000000
vt 0.937500 0.843750
vt 0.859375 0.781250
vt 0.937500 0.781250
vt 0.796875 0.781250
vt 0.718750 0.843750
vt 0.718750 0.781250
vt 1.000000 0.843750
vt 0.859375 1.000000
vt 0.796875 0.843750
vt 1.000000 0.781250
vt 0.218750 0.750000
vt 0.187500 0.687500
vt 0.218750 0.687500
vt 0.156250 0.750000
vt 0.187500 0.687500
vt 0.187500 0.750000
vt 0.218750 0.687500
vt 0.187500 0.500000
vt 0.218750 0.500000
vt 0.156250 0.500000
vt 0.156250 0.687500
vt 0.125000 0.500000
vt 0.250000 0.687500
vt 0.187500 0.750000
vt 0.125000 0.687500
vt 0.250000 0.500000
vt 0.062500 0.125000
vt 0.093750 0.062500
vt 0.093750 0.125000
vt 0.031250 0.125000
vt 0.062500 0.062500
vt 0.062500 0.125000
vt 0.093750 0.062500
vt 0.062500 -0.000000
vt 0.093750 -0.000000
vt 0.031250 -0.000000
vt 0.000000 0.062500
vt 0.000000 0.000000
vt 0.125000 0.062500
vt 0.062500 0.062500
vt 0.031250 0.062500
vt 0.125000 -0.000000
vt 0.750000 0.781250
vt 0.875000 0.531250
vt 0.875000 0.781250
vt 0.625000 0.781250
vt 0.750000 0.531250
vt 0.750000 0.781250
vt 0.875000 0.531250
vt 0.750000 0.500000
vt 0.875000 0.500000
vt 0.625000 0.500000
vt 0.625000 0.531250
vt 0.500000 0.500000
vt 1.000000 0.531250
vt 0.750000 0.531250
vt 0.500000 0.531250
vt 1.000000 0.500000
vt 0.375000 0.812500
vt 0.437500 0.687500
vt 0.437500 0.812500
vt 0.312500 0.812500
vt 0.375000 0.687500
vt 0.375000 0.812500
vt 0.437500 0.687500
vt 0.375000 0.500000
vt 0.437500 0.500000
vt 0.312500 0.500000
vt 0.312500 0.687500
vt 0.250000 0.500000
vt 0.500000 0.687500
vt 0.375000 0.687500
vt 0.250000 0.687500
vt 0.500000 0.500000
vn 0.0000 -1.0000 0.0000
vn 0.0000 1.0000 0.0000
vn -1.0000 -0.0000 0.0000
vn 0.0000 -0.0000 -1.0000
vn 1.0000 -0.0000 0.0000
vn -0.0000 0.0000 1.0000
vn -0.1710 -0.9698 0.1736
vn 0.1710 0.9698 -0.1736
vn -0.9848 0.1736 0.0000
vn -0.0302 -0.1710 -0.9848
vn 0.9848 -0.1736 -0.0000
vn 0.0302 0.1710 0.9848
vn 0.1710 -0.9698 0.1736
vn -0.1710 0.9698 -0.1736
vn -0.9848 -0.1736 0.0000
vn 0.0302 -0.1710 -0.9848
vn 0.9848 0.1736 -0.0000
vn -0.0302 0.1710 0.9848
vn 0.1710 -0.9698 0.1737
vn 0.0000 -0.6947 0.7193
vn 0.0000 0.6947 -0.7193
vn 0.0000 -0.7193 -0.6947
vn 0.0000 0.7193 0.6947
vn 0.0000 -0.8746 -0.4848
vn 0.0000 0.8746 0.4848
vn 0.0000 0.4848 -0.8746
vn 0.0000 -0.4848 0.8746
usemtl Material
s off
f 2/1/1 4/2/1 1/3/1
f 8/4/2 6/5/2 5/6/2
f 5/7/3 2/8/3 1/9/3
f 6/5/4 3/10/4 2/8/4
f 7/11/5 4/12/5 3/10/5
f 1/9/6 8/13/6 5/7/6
f 2/1/1 3/14/1 4/2/1
f 8/4/2 7/11/2 6/5/2
f 5/7/3 6/5/3 2/8/3
f 6/5/4 7/11/4 3/10/4
f 7/11/5 8/15/5 4/12/5
f 1/9/6 4/16/6 8/13/6
f 10/17/7 12/18/7 9/19/7
f 16/20/8 14/21/8 13/22/8
f 13/23/9 10/24/9 9/25/9
f 14/21/10 11/26/10 10/24/10
f 15/27/11 12/28/11 11/26/11
f 9/25/12 16/29/12 13/23/12
f 10/17/7 11/30/7 12/18/7
f 16/20/8 15/27/8 14/21/8
f 13/23/9 14/21/9 10/24/9
f 14/21/10 15/27/10 11/26/10
f 15/27/11 16/31/11 12/28/11
f 9/25/12 12/32/12 16/29/12
f 18/33/13 20/34/13 17/35/13
f 24/36/14 22/37/14 21/38/14
f 21/39/15 18/40/15 17/41/15
f 22/37/16 19/42/16 18/40/16
f 23/43/17 20/44/17 19/42/17
f 17/41/18 24/45/18 21/39/18
f 18/33/19 19/46/19 20/34/19
f 24/36/14 23/43/14 22/37/14
f 21/39/15 22/37/15 18/40/15
f 22/37/16 23/43/16 19/42/16
f 23/43/17 24/47/17 20/44/17
f 17/41/18 20/48/18 24/45/18
f 26/49/1 28/50/1 25/51/1
f 29/52/2 31/53/2 30/54/2
f 29/55/3 26/56/3 25/57/3
f 30/54/4 27/58/4 26/56/4
f 31/53/5 28/59/5 27/58/5
f 25/57/6 32/60/6 29/55/6
f 26/49/1 27/61/1 28/50/1
f 29/52/2 32/62/2 31/53/2
f 29/55/3 30/54/3 26/56/3
f 30/54/4 31/53/4 27/58/4
f 31/53/5 32/63/5 28/59/5
f 25/57/6 28/64/6 32/60/6
f 34/65/1 36/66/1 33/67/1
f 40/68/2 38/69/2 37/70/2
f 37/71/3 34/72/3 33/73/3
f 38/69/4 35/74/4 34/72/4
f 39/75/5 36/76/5 35/74/5
f 33/73/6 40/77/6 37/71/6
f 34/65/1 35/78/1 36/66/1
f 40/68/2 39/75/2 38/69/2
f 37/71/3 38/69/3 34/72/3
f 38/69/4 39/75/4 35/74/4
f 39/75/5 40/79/5 36/76/5
f 33/73/6 36/80/6 40/77/6
f 42/81/1 44/82/1 41/83/1
f 45/84/2 47/85/2 46/86/2
f 45/87/3 42/88/3 41/89/3
f 46/86/4 43/90/4 42/88/4
f 47/85/5 44/91/5 43/90/5
f 41/89/6 48/92/6 45/87/6
f 42/81/1 43/93/1 44/82/1
f 45/84/2 48/94/2 47/85/2
f 45/87/3 46/86/3 42/88/3
f 46/86/4 47/85/4 43/90/4
f 47/85/5 48/95/5 44/91/5
f 41/89/6 44/96/6 48/92/6
f 50/97/1 52/98/1 49/99/1
f 56/100/2 54/101/2 53/102/2
f 53/103/3 50/104/3 49/105/3
f 54/101/4 51/106/4 50/104/4
f 55/107/5 52/108/5 51/106/5
f 49/105/6 56/109/6 53/103/6
f 50/97/1 51/110/1 52/98/1
f 56/100/2 55/107/2 54/101/2
f 53/103/3 54/101/3 50/104/3
f 54/101/4 55/107/4 51/106/4
f 55/107/5 56/111/5 52/108/5
f 49/105/6 52/112/6 56/109/6
f 57/113/20 59/114/20 60/115/20
f 64/116/21 62/117/21 61/118/21
f 61/119/3 58/120/3 57/121/3
f 62/117/22 59/122/22 58/120/22
f 63/123/5 60/124/5 59/122/5
f 57/121/23 64/125/23 61/119/23
f 57/113/20 58/126/20 59/114/20
f 64/116/21 63/123/21 62/117/21
f 61/119/3 62/117/3 58/120/3
f 62/117/22 63/123/22 59/122/22
f 63/123/5 64/127/5 60/124/5
f 57/121/23 60/128/23 64/125/23
f 66/129/1 68/130/1 65/131/1
f 72/132/2 70/133/2 69/134/2
f 69/135/3 66/136/3 65/137/3
f 70/133/4 67/138/4 66/136/4
f 67/138/5 72/139/5 68/140/5
f 65/137/6 72/141/6 69/135/6
f 66/129/1 67/142/1 68/130/1
f 72/132/2 71/143/2 70/133/2
f 69/135/3 70/133/3 66/136/3
f 70/133/4 71/143/4 67/138/4
f 67/138/5 71/143/5 72/139/5
f 65/137/6 68/144/6 72/141/6
f 73/145/24 75/146/24 76/147/24
f 80/148/25 78/149/25 77/150/25
f 77/151/3 74/152/3 73/153/3
f 78/149/26 75/154/26 74/152/26
f 79/155/5 76/156/5 75/154/5
f 73/153/27 80/157/27 77/151/27
f 73/145/24 74/158/24 75/146/24
f 80/148/25 79/155/25 78/149/25
f 77/151/3 78/149/3 74/152/3
f 78/149/26 79/155/26 75/154/26
f 79/155/5 80/159/5 76/156/5
f 73/153/27 76/160/27 80/157/27
f 82/161/1 84/162/1 81/163/1
f 88/164/2 86/165/2 85/166/2
f 85/167/3 82/168/3 81/169/3
f 86/165/4 83/170/4 82/168/4
f 83/170/5 88/171/5 84/172/5
f 81/169/6 88/173/6 85/167/6
f 82/161/1 83/174/1 84/162/1
f 88/164/2 87/175/2 86/165/2
f 85/167/3 86/165/3 82/168/3
f 86/165/4 87/175/4 83/170/4
f 83/170/5 87/175/5 88/171/5
f 81/169/6 84/176/6 88/173/6
f 90/177/1 92/178/1 89/179/1
f 96/180/2 94/181/2 93/182/2
f 93/183/3 90/184/3 89/185/3
f 94/181/4 91/186/4 90/184/4
f 95/187/5 92/188/5 91/186/5
f 89/185/6 96/189/6 93/183/6
f 90/177/1 91/190/1 92/178/1
f 96/180/2 95/187/2 94/181/2
f 93/183/3 94/181/3 90/184/3
f 94/181/4 95/187/4 91/186/4
f 95/187/5 96/191/5 92/188/5
f 89/185/6 92/192/6 96/189/6
f 98/193/1 100/194/1 97/195/1
f 104/196/2 102/197/2 101/198/2
f 101/199/3 98/200/3 97/201/3
f 102/197/4 99/202/4 98/200/4
f 103/203/5 100/204/5 99/202/5
f 97/201/6 104/205/6 101/199/6
f 98/193/1 99/206/1 100/194/1
f 104/196/2 103/203/2 102/197/2
f 101/199/3 102/197/3 98/200/3
f 102/197/4 103/203/4 99/202/4
f 103/203/5 104/207/5 100/204/5
f 97/201/6 100/208/6 104/205/6
