mtllib ./dummy.mtl
g Cube
v -0.03716514 -0.0234764 -0.00267636
v -0.03716514 0.1148953 -0.00267636
v -0.03886394 0.1148953 1.018592
v -0.03886394 -0.0234764 1.018592
v -0.03716514 0.1148953 -0.00267636
v 1.029934 0.1148953 -0.0009012222
v 1.028235 0.1148953 1.020367
v -0.03886394 0.1148953 1.018592
v 1.029934 0.1148953 -0.0009012222
v 1.029934 -0.0234764 -0.0009012222
v 1.028235 -0.0234764 1.020367
v 1.028235 0.1148953 1.020367
v 1.029934 -0.0234764 -0.0009012222
v -0.03716514 -0.0234764 -0.00267636
v -0.03886394 -0.0234764 1.018592
v 1.028235 -0.0234764 1.020367
v -0.03886394 -0.0234764 1.018592
v -0.03886394 0.1148953 1.018592
v 1.028235 0.1148953 1.020367
v 1.028235 -0.0234764 1.020367
v 1.029934 -0.0234764 -0.0009012222
v 1.029934 0.1148953 -0.0009012222
v -0.03716514 0.1148953 -0.00267636
v -0.03716514 -0.0234764 -0.00267636

vn -0.9999986 0 -0.001663446
vn -0.9999986 0 -0.001663446
vn -0.9999986 0 -0.001663446
vn -0.9999986 0 -0.001663446
vn 0 1 0
vn 0 1 0
vn 0 1 0
vn 0 1 0
vn 0.9999986 0 0.001663446
vn 0.9999986 0 0.001663446
vn 0.9999986 0 0.001663446
vn 0.9999986 0 0.001663446
vn 0 -1 0
vn 0 -1 0
vn 0 -1 0
vn 0 -1 0
vn -0.001663446 0 0.9999986
vn -0.001663446 0 0.9999986
vn -0.001663446 0 0.9999986
vn -0.001663446 0 0.9999986
vn 0.001663446 0 -0.9999986
vn 0.001663446 0 -0.9999986
vn 0.001663446 0 -0.9999986
vn 0.001663446 0 -0.9999986

vt 0 0
vt 0 1
vt 1 1
vt 1 0
vt 0 0
vt 0 1
vt 1 1
vt 1 0
vt 0 0
vt 0 1
vt 1 1
vt 1 0
vt 0 0
vt 0 1
vt 1 1
vt 1 0
vt 0 0
vt 0 1
vt 1 1
vt 1 0
vt 0 0
vt 0 1
vt 1 1
vt 1 0

usemtl Standard(Clone)
usemap Standard(Clone)
f 2/2/2 1/1/1 3/3/3
f 1/1/1 4/4/4 3/3/3
f 6/6/6 5/5/5 7/7/7
f 5/5/5 8/8/8 7/7/7
f 10/10/10 9/9/9 11/11/11
f 9/9/9 12/12/12 11/11/11
f 14/14/14 13/13/13 15/15/15
f 13/13/13 16/16/16 15/15/15
f 18/18/18 17/17/17 19/19/19
f 17/17/17 20/20/20 19/19/19
f 22/22/22 21/21/21 23/23/23
f 21/21/21 24/24/24 23/23/23
g Cube (Copy)
v 0.3669972 0.05706917 0.3779666
v 0.3669972 0.6932752 0.3779666
v 0.3665625 0.6932752 0.6392962
v 0.3665625 0.05706917 0.6392962
v 0.3669972 0.6932752 0.3779666
v 0.6245071 0.6932752 0.378395
v 0.6240724 0.6932752 0.6397246
v 0.3665625 0.6932752 0.6392962
v 0.6245071 0.6932752 0.378395
v 0.6245071 0.05706917 0.378395
v 0.6240724 0.05706917 0.6397246
v 0.6240724 0.6932752 0.6397246
v 0.6245071 0.05706917 0.378395
v 0.3669972 0.05706917 0.3779666
v 0.3665625 0.05706917 0.6392962
v 0.6240724 0.05706917 0.6397246
v 0.3665625 0.05706917 0.6392962
v 0.3665625 0.6932752 0.6392962
v 0.6240724 0.6932752 0.6397246
v 0.6240724 0.05706917 0.6397246
v 0.6245071 0.05706917 0.378395
v 0.6245071 0.6932752 0.378395
v 0.3669972 0.6932752 0.3779666
v 0.3669972 0.05706917 0.3779666

vn -0.9999986 0 -0.001663446
vn -0.9999986 0 -0.001663446
vn -0.9999986 0 -0.001663446
vn -0.9999986 0 -0.001663446
vn 0 1 0
vn 0 1 0
vn 0 1 0
vn 0 1 0
vn 0.9999986 0 0.001663446
vn 0.9999986 0 0.001663446
vn 0.9999986 0 0.001663446
vn 0.9999986 0 0.001663446
vn 0 -1 0
vn 0 -1 0
vn 0 -1 0
vn 0 -1 0
vn -0.001663446 0 0.9999986
vn -0.001663446 0 0.9999986
vn -0.001663446 0 0.9999986
vn -0.001663446 0 0.9999986
vn 0.001663446 0 -0.9999986
vn 0.001663446 0 -0.9999986
vn 0.001663446 0 -0.9999986
vn 0.001663446 0 -0.9999986

vt 0 0
vt 0 1
vt 1 1
vt 1 0
vt 0 0
vt 0 1
vt 1 1
vt 1 0
vt 0 0
vt 0 1
vt 1 1
vt 1 0
vt 0 0
vt 0 1
vt 1 1
vt 1 0
vt 0 0
vt 0 1
vt 1 1
vt 1 0
vt 0 0
vt 0 1
vt 1 1
vt 1 0

usemtl Standard(Clone)
usemap Standard(Clone)
f 26/26/26 25/25/25 27/27/27
f 25/25/25 28/28/28 27/27/27
f 30/30/30 29/29/29 31/31/31
f 29/29/29 32/32/32 31/31/31
f 34/34/34 33/33/33 35/35/35
f 33/33/33 36/36/36 35/35/35
f 38/38/38 37/37/37 39/39/39
f 37/37/37 40/40/40 39/39/39
f 42/42/42 41/41/41 43/43/43
f 41/41/41 44/44/44 43/43/43
f 46/46/46 45/45/45 47/47/47
f 45/45/45 48/48/48 47/47/47
g Cube (Copy) (Copy)
v 0.2594815 0.5931739 0.292748
v 0.2594815 1.326886 0.292748
v 0.2587638 1.326886 0.7241566
v 0.2587638 0.5931739 0.7241566
v 0.2594815 1.326886 0.292748
v 0.7323058 1.326886 0.2935346
v 0.7315881 1.326886 0.7249432
v 0.2587638 1.326886 0.7241566
v 0.7323058 1.326886 0.2935346
v 0.7323058 0.5931739 0.2935346
v 0.7315881 0.5931739 0.7249432
v 0.7315881 1.326886 0.7249432
v 0.7323058 0.5931739 0.2935346
v 0.2594815 0.5931739 0.292748
v 0.2587638 0.5931739 0.7241566
v 0.7315881 0.5931739 0.7249432
v 0.2587638 0.5931739 0.7241566
v 0.2587638 1.326886 0.7241566
v 0.7315881 1.326886 0.7249432
v 0.7315881 0.5931739 0.7249432
v 0.7323058 0.5931739 0.2935346
v 0.7323058 1.326886 0.2935346
v 0.2594815 1.326886 0.292748
v 0.2594815 0.5931739 0.292748

vn -0.9999986 0 -0.001663446
vn -0.9999986 0 -0.001663446
vn -0.9999986 0 -0.001663446
vn -0.9999986 0 -0.001663446
vn 0 1 0
vn 0 1 0
vn 0 1 0
vn 0 1 0
vn 0.9999986 0 0.001663446
vn 0.9999986 0 0.001663446
vn 0.9999986 0 0.001663446
vn 0.9999986 0 0.001663446
vn 0 -1 0
vn 0 -1 0
vn 0 -1 0
vn 0 -1 0
vn -0.001663446 0 0.9999986
vn -0.001663446 0 0.9999986
vn -0.001663446 0 0.9999986
vn -0.001663446 0 0.9999986
vn 0.001663446 0 -0.9999986
vn 0.001663446 0 -0.9999986
vn 0.001663446 0 -0.9999986
vn 0.001663446 0 -0.9999986

vt 0 0
vt 0 1
vt 1 1
vt 1 0
vt 0 0
vt 0 1
vt 1 1
vt 1 0
vt 0 0
vt 0 1
vt 1 1
vt 1 0
vt 0 0
vt 0 1
vt 1 1
vt 1 0
vt 0 0
vt 0 1
vt 1 1
vt 1 0
vt 0 0
vt 0 1
vt 1 1
vt 1 0

usemtl Standard(Clone)
usemap Standard(Clone)
f 50/50/50 49/49/49 51/51/51
f 49/49/49 52/52/52 51/51/51
f 54/54/54 53/53/53 55/55/55
f 53/53/53 56/56/56 55/55/55
f 58/58/58 57/57/57 59/59/59
f 57/57/57 60/60/60 59/59/59
f 62/62/62 61/61/61 63/63/63
f 61/61/61 64/64/64 63/63/63
f 66/66/66 65/65/65 67/67/67
f 65/65/65 68/68/68 67/67/67
f 70/70/70 69/69/69 71/71/71
f 69/69/69 72/72/72 71/71/71
g Cube (Copy)
v 0.1781653 1.274863 0.1937934
v 0.1781653 1.875049 0.1937934
v 0.1771189 1.875049 0.82284
v 0.1771189 1.274863 0.82284
v 0.1781653 1.875049 0.1937934
v 0.8139507 1.875049 0.194851
v 0.8129043 1.875049 0.8238977
v 0.1771189 1.875049 0.82284
v 0.8139507 1.875049 0.194851
v 0.8139507 1.274863 0.194851
v 0.8129043 1.274863 0.8238977
v 0.8129043 1.875049 0.8238977
v 0.8139507 1.274863 0.194851
v 0.1781653 1.274863 0.1937934
v 0.1771189 1.274863 0.82284
v 0.8129043 1.274863 0.8238977
v 0.1771189 1.274863 0.82284
v 0.1771189 1.875049 0.82284
v 0.8129043 1.875049 0.8238977
v 0.8129043 1.274863 0.8238977
v 0.8139507 1.274863 0.194851
v 0.8139507 1.875049 0.194851
v 0.1781653 1.875049 0.1937934
v 0.1781653 1.274863 0.1937934

vn -0.9999986 0 -0.001663446
vn -0.9999986 0 -0.001663446
vn -0.9999986 0 -0.001663446
vn -0.9999986 0 -0.001663446
vn 0 1 0
vn 0 1 0
vn 0 1 0
vn 0 1 0
vn 0.9999986 0 0.001663446
vn 0.9999986 0 0.001663446
vn 0.9999986 0 0.001663446
vn 0.9999986 0 0.001663446
vn 0 -1 0
vn 0 -1 0
vn 0 -1 0
vn 0 -1 0
vn -0.001663446 0 0.9999986
vn -0.001663446 0 0.9999986
vn -0.001663446 0 0.9999986
vn -0.001663446 0 0.9999986
vn 0.001663446 0 -0.9999986
vn 0.001663446 0 -0.9999986
vn 0.001663446 0 -0.9999986
vn 0.001663446 0 -0.9999986

vt 0 0
vt 0 1
vt 1 1
vt 1 0
vt 0 0
vt 0 1
vt 1 1
vt 1 0
vt 0 0
vt 0 1
vt 1 1
vt 1 0
vt 0 0
vt 0 1
vt 1 1
vt 1 0
vt 0 0
vt 0 1
vt 1 1
vt 1 0
vt 0 0
vt 0 1
vt 1 1
vt 1 0

usemtl Standard(Clone)
usemap Standard(Clone)
f 74/74/74 73/73/73 75/75/75
f 73/73/73 76/76/76 75/75/75
f 78/78/78 77/77/77 79/79/79
f 77/77/77 80/80/80 79/79/79
f 82/82/82 81/81/81 83/83/83
f 81/81/81 84/84/84 83/83/83
f 86/86/86 85/85/85 87/87/87
f 85/85/85 88/88/88 87/87/87
f 90/90/90 89/89/89 91/91/91
f 89/89/89 92/92/92 91/91/91
f 94/94/94 93/93/93 95/95/95
f 93/93/93 96/96/96 95/95/95
g Cube (Copy) (Copy) (Copy) (Copy) (Copy)
v -0.172047 1.041388 0.3572511
v -0.172047 1.26722 0.3572511
v -0.1725477 1.26722 0.6582192
v -0.1725477 1.041388 0.6582192
v -0.172047 1.26722 0.3572511
v 0.3007773 1.26722 0.3580377
v 0.3002766 1.26722 0.6590058
v -0.1725477 1.26722 0.6582192
v 0.3007773 1.26722 0.3580377
v 0.3007773 1.041388 0.3580377
v 0.3002766 1.041388 0.6590058
v 0.3002766 1.26722 0.6590058
v 0.3007773 1.041388 0.3580377
v -0.172047 1.041388 0.3572511
v -0.1725477 1.041388 0.6582192
v 0.3002766 1.041388 0.6590058
v -0.1725477 1.041388 0.6582192
v -0.1725477 1.26722 0.6582192
v 0.3002766 1.26722 0.6590058
v 0.3002766 1.041388 0.6590058
v 0.3007773 1.041388 0.3580377
v 0.3007773 1.26722 0.3580377
v -0.172047 1.26722 0.3572511
v -0.172047 1.041388 0.3572511

vn -0.9999986 0 -0.001663446
vn -0.9999986 0 -0.001663446
vn -0.9999986 0 -0.001663446
vn -0.9999986 0 -0.001663446
vn 0 1 0
vn 0 1 0
vn 0 1 0
vn 0 1 0
vn 0.9999986 0 0.001663446
vn 0.9999986 0 0.001663446
vn 0.9999986 0 0.001663446
vn 0.9999986 0 0.001663446
vn 0 -1 0
vn 0 -1 0
vn 0 -1 0
vn 0 -1 0
vn -0.001663446 0 0.9999986
vn -0.001663446 0 0.9999986
vn -0.001663446 0 0.9999986
vn -0.001663446 0 0.9999986
vn 0.001663446 0 -0.9999986
vn 0.001663446 0 -0.9999986
vn 0.001663446 0 -0.9999986
vn 0.001663446 0 -0.9999986

vt 0 0
vt 0 1
vt 1 1
vt 1 0
vt 0 0
vt 0 1
vt 1 1
vt 1 0
vt 0 0
vt 0 1
vt 1 1
vt 1 0
vt 0 0
vt 0 1
vt 1 1
vt 1 0
vt 0 0
vt 0 1
vt 1 1
vt 1 0
vt 0 0
vt 0 1
vt 1 1
vt 1 0

usemtl Standard(Clone)
usemap Standard(Clone)
f 98/98/98 97/97/97 99/99/99
f 97/97/97 100/100/100 99/99/99
f 102/102/102 101/101/101 103/103/103
f 101/101/101 104/104/104 103/103/103
f 106/106/106 105/105/105 107/107/107
f 105/105/105 108/108/108 107/107/107
f 110/110/110 109/109/109 111/111/111
f 109/109/109 112/112/112 111/111/111
f 114/114/114 113/113/113 115/115/115
f 113/113/113 116/116/116 115/115/115
f 118/118/118 117/117/117 119/119/119
f 117/117/117 120/120/120 119/119/119
g Cube (Copy) (Copy) (Copy) (Copy) (Copy)
v 0.717585 1.041388 0.3587299
v 0.717585 1.26722 0.3587299
v 0.7170843 1.26722 0.659698
v 0.7170843 1.041388 0.659698
v 0.717585 1.26722 0.3587299
v 1.190409 1.26722 0.3595164
v 1.189909 1.26722 0.6604846
v 0.7170843 1.26722 0.659698
v 1.190409 1.26722 0.3595164
v 1.190409 1.041388 0.3595164
v 1.189909 1.041388 0.6604846
v 1.189909 1.26722 0.6604846
v 1.190409 1.041388 0.3595164
v 0.717585 1.041388 0.3587299
v 0.7170843 1.041388 0.659698
v 1.189909 1.041388 0.6604846
v 0.7170843 1.041388 0.659698
v 0.7170843 1.26722 0.659698
v 1.189909 1.26722 0.6604846
v 1.189909 1.041388 0.6604846
v 1.190409 1.041388 0.3595164
v 1.190409 1.26722 0.3595164
v 0.717585 1.26722 0.3587299
v 0.717585 1.041388 0.3587299

vn -0.9999986 0 -0.001663446
vn -0.9999986 0 -0.001663446
vn -0.9999986 0 -0.001663446
vn -0.9999986 0 -0.001663446
vn 0 1 0
vn 0 1 0
vn 0 1 0
vn 0 1 0
vn 0.9999986 0 0.001663446
vn 0.9999986 0 0.001663446
vn 0.9999986 0 0.001663446
vn 0.9999986 0 0.001663446
vn 0 -1 0
vn 0 -1 0
vn 0 -1 0
vn 0 -1 0
vn -0.001663446 0 0.9999986
vn -0.001663446 0 0.9999986
vn -0.001663446 0 0.9999986
vn -0.001663446 0 0.9999986
vn 0.001663446 0 -0.9999986
vn 0.001663446 0 -0.9999986
vn 0.001663446 0 -0.9999986
vn 0.001663446 0 -0.9999986

vt 0 0
vt 0 1
vt 1 1
vt 1 0
vt 0 0
vt 0 1
vt 1 1
vt 1 0
vt 0 0
vt 0 1
vt 1 1
vt 1 0
vt 0 0
vt 0 1
vt 1 1
vt 1 0
vt 0 0
vt 0 1
vt 1 1
vt 1 0
vt 0 0
vt 0 1
vt 1 1
vt 1 0

usemtl Standard(Clone)
usemap Standard(Clone)
f 122/122/122 121/121/121 123/123/123
f 121/121/121 124/124/124 123/123/123
f 126/126/126 125/125/125 127/127/127
f 125/125/125 128/128/128 127/127/127
f 130/130/130 129/129/129 131/131/131
f 129/129/129 132/132/132 131/131/131
f 134/134/134 133/133/133 135/135/135
f 133/133/133 136/136/136 135/135/135
f 138/138/138 137/137/137 139/139/139
f 137/137/137 140/140/140 139/139/139
f 142/142/142 141/141/141 143/143/143
f 141/141/141 144/144/144 143/143/143
