o Cube
v 1 0 1
v 0 0 1
v 0 0 0
v 1 0 0
v 1 1 1
v 0 1 0
v 1 1 0
vt 1 0
vt 0 1
vt 1 1
vt 0 0
vt 1 0
vt 1 1
vt 0 0
vt 1 0
vt 0 1
vt 0 0
vt 1 1
vt 1 0
vt 1 0
vt 0 1
vt 1 1
vt 1 1
vt 0 1
vt 1 0
vt 0 1
vt 0 0
vt 1 1
vt 0 1
vt 0 0
vn 0 -1 0
vn 0 0 1
vn -1 0 0
vn 0 0 -1
vn 1 0 0
vn -0.7071 0.7071 0
vn 0 0.7071 0.7071
s off
f 2/1/1 4/2/1 1/3/1
f 2/4/2 1/5/2 5/6/2
f 3/7/3 2/8/3 6/9/3
f 3/10/4 7/11/4 4/12/4
f 1/13/5 7/14/5 5/15/5
f 5/16/6 7/17/6 2/18/6
f 6/19/7 2/20/7 7/21/7
f 2/1/1 3/10/1 4/2/1
f 3/10/4 6/22/4 7/11/4
f 1/13/5 4/23/5 7/14/5